G04 #@! TF.GenerationSoftware,KiCad,Pcbnew,5.1.6*
G04 #@! TF.CreationDate,2020-07-18T15:54:25+02:00*
G04 #@! TF.ProjectId,receiver,72656365-6976-4657-922e-6b696361645f,rev?*
G04 #@! TF.SameCoordinates,PX41672a0PY6350ce0*
G04 #@! TF.FileFunction,Copper,L2,Bot*
G04 #@! TF.FilePolarity,Positive*
%FSLAX46Y46*%
G04 Gerber Fmt 4.6, Leading zero omitted, Abs format (unit mm)*
G04 Created by KiCad (PCBNEW 5.1.6) date 2020-07-18 15:54:25*
%MOMM*%
%LPD*%
G01*
G04 APERTURE LIST*
G04 #@! TA.AperFunction,ComponentPad*
%ADD10O,1.600000X1.600000*%
G04 #@! TD*
G04 #@! TA.AperFunction,ComponentPad*
%ADD11R,1.600000X1.600000*%
G04 #@! TD*
G04 #@! TA.AperFunction,ComponentPad*
%ADD12O,1.700000X1.700000*%
G04 #@! TD*
G04 #@! TA.AperFunction,ComponentPad*
%ADD13R,1.700000X1.700000*%
G04 #@! TD*
G04 #@! TA.AperFunction,ComponentPad*
%ADD14O,1.600000X2.400000*%
G04 #@! TD*
G04 #@! TA.AperFunction,ComponentPad*
%ADD15R,1.600000X2.400000*%
G04 #@! TD*
G04 #@! TA.AperFunction,ComponentPad*
%ADD16C,1.600000*%
G04 #@! TD*
G04 #@! TA.AperFunction,WasherPad*
%ADD17C,3.200000*%
G04 #@! TD*
G04 #@! TA.AperFunction,ViaPad*
%ADD18C,1.600000*%
G04 #@! TD*
G04 #@! TA.AperFunction,Conductor*
%ADD19C,1.950000*%
G04 #@! TD*
G04 #@! TA.AperFunction,Conductor*
%ADD20C,0.254000*%
G04 #@! TD*
G04 APERTURE END LIST*
D10*
X31750000Y14060000D03*
X31750000Y39460000D03*
X77470000Y14060000D03*
X34290000Y39460000D03*
X74930000Y14060000D03*
X36830000Y39460000D03*
X72390000Y14060000D03*
X39370000Y39460000D03*
X69850000Y14060000D03*
X41910000Y39460000D03*
X67310000Y14060000D03*
X44450000Y39460000D03*
X64770000Y14060000D03*
X46990000Y39460000D03*
X62230000Y14060000D03*
X49530000Y39460000D03*
X59690000Y14060000D03*
X52070000Y39460000D03*
X57150000Y14060000D03*
X54610000Y39460000D03*
X54610000Y14060000D03*
X57150000Y39460000D03*
X52070000Y14060000D03*
X59690000Y39460000D03*
X49530000Y14060000D03*
X62230000Y39460000D03*
X46990000Y14060000D03*
X64770000Y39460000D03*
X44450000Y14060000D03*
X67310000Y39460000D03*
X41910000Y14060000D03*
X69850000Y39460000D03*
X39370000Y14060000D03*
X72390000Y39460000D03*
X36830000Y14060000D03*
X74930000Y39460000D03*
X34290000Y14060000D03*
D11*
X77470000Y39460000D03*
D12*
X44450000Y48260000D03*
D13*
X46990000Y48260000D03*
D14*
X3810000Y30480000D03*
X21590000Y22860000D03*
X6350000Y30480000D03*
X19050000Y22860000D03*
X8890000Y30480000D03*
X16510000Y22860000D03*
X11430000Y30480000D03*
X13970000Y22860000D03*
X13970000Y30480000D03*
X11430000Y22860000D03*
X16510000Y30480000D03*
X8890000Y22860000D03*
X19050000Y30480000D03*
X6350000Y22860000D03*
X21590000Y30480000D03*
D15*
X3810000Y22860000D03*
D12*
X59690000Y5080000D03*
X62230000Y5080000D03*
X64770000Y5080000D03*
D13*
X67310000Y5080000D03*
D12*
X24130000Y46990000D03*
D13*
X24130000Y44450000D03*
D12*
X31750000Y43180000D03*
X34290000Y43180000D03*
X36830000Y43180000D03*
X39370000Y43180000D03*
X41910000Y43180000D03*
X44450000Y43180000D03*
X46990000Y43180000D03*
X49530000Y43180000D03*
X52070000Y43180000D03*
X54610000Y43180000D03*
X57150000Y43180000D03*
X59690000Y43180000D03*
X62230000Y43180000D03*
X64770000Y43180000D03*
X67310000Y43180000D03*
X69850000Y43180000D03*
X72390000Y43180000D03*
X74930000Y43180000D03*
D13*
X77470000Y43180000D03*
D12*
X17780000Y46990000D03*
X17780000Y44450000D03*
D13*
X17780000Y41910000D03*
D16*
X8810000Y19050000D03*
X3810000Y19050000D03*
X8810000Y36830000D03*
X3810000Y36830000D03*
X11430000Y16510000D03*
X16430000Y16510000D03*
X3810000Y16510000D03*
X8810000Y16510000D03*
X16430000Y19050000D03*
X11430000Y19050000D03*
D12*
X31750000Y10160000D03*
X34290000Y10160000D03*
X36830000Y10160000D03*
X39370000Y10160000D03*
X41910000Y10160000D03*
X44450000Y10160000D03*
X46990000Y10160000D03*
X49530000Y10160000D03*
X52070000Y10160000D03*
X54610000Y10160000D03*
X57150000Y10160000D03*
X59690000Y10160000D03*
X62230000Y10160000D03*
X64770000Y10160000D03*
X67310000Y10160000D03*
X69850000Y10160000D03*
X72390000Y10160000D03*
X74930000Y10160000D03*
D13*
X77470000Y10160000D03*
D17*
X81280000Y3810000D03*
X81280000Y49530000D03*
X3810000Y3810000D03*
X3810000Y49530000D03*
D18*
X27940000Y24130000D03*
X27940000Y34290000D03*
D19*
X3810000Y15240000D02*
X3810000Y16510000D01*
X10160000Y13970000D02*
X5080000Y13970000D01*
X5080000Y13970000D02*
X3810000Y15240000D01*
X10160000Y13970000D02*
X11430000Y15240000D01*
X11430000Y15240000D02*
X11430000Y16510000D01*
X6350000Y27940000D02*
X6350000Y30480000D01*
X6350000Y34370000D02*
X8810000Y36830000D01*
X6350000Y30480000D02*
X6350000Y34370000D01*
X6350000Y27940000D02*
X8890000Y25400000D01*
X8890000Y25400000D02*
X24130000Y25400000D01*
X24130000Y25400000D02*
X25400000Y24130000D01*
X11430000Y15240000D02*
X12700000Y13970000D01*
X12700000Y13970000D02*
X24130000Y13970000D01*
X24130000Y13970000D02*
X25400000Y15240000D01*
X25400000Y15240000D02*
X25400000Y24130000D01*
X62230000Y16510000D02*
X63500000Y17780000D01*
X63500000Y17780000D02*
X76200000Y17780000D01*
X76200000Y17780000D02*
X77470000Y16510000D01*
X77470000Y16510000D02*
X77470000Y14060000D01*
X62230000Y10160000D02*
X62230000Y8890000D01*
X62230000Y8890000D02*
X59690000Y6350000D01*
X59690000Y6350000D02*
X59690000Y5080000D01*
X8810000Y40560000D02*
X8810000Y36830000D01*
X17780000Y46990000D02*
X15240000Y46990000D01*
X15240000Y46990000D02*
X8810000Y40560000D01*
X44450000Y39460000D02*
X44450000Y43180000D01*
X62230000Y14060000D02*
X62230000Y16510000D01*
X62230000Y16510000D02*
X62230000Y17780000D01*
X44450000Y35560000D02*
X44450000Y39460000D01*
X62230000Y17780000D02*
X44450000Y35560000D01*
X77470000Y14060000D02*
X77470000Y10160000D01*
X62230000Y14060000D02*
X62230000Y10160000D01*
X44450000Y48260000D02*
X44450000Y43180000D01*
X25400000Y48260000D02*
X24130000Y46990000D01*
X44450000Y48260000D02*
X25400000Y48260000D01*
X17780000Y46990000D02*
X24130000Y46990000D01*
X31750000Y43180000D02*
X31750000Y39460000D01*
X31750000Y39460000D02*
X27940000Y35650000D01*
X27940000Y35650000D02*
X27940000Y34290000D01*
X27940000Y24130000D02*
X27940000Y24130000D01*
X27940000Y34290000D02*
X27940000Y34290000D01*
X60960000Y2540000D02*
X62230000Y3810000D01*
X58420000Y2540000D02*
X60960000Y2540000D01*
X27940000Y7620000D02*
X29210000Y6350000D01*
X27940000Y24130000D02*
X27940000Y7620000D01*
X29210000Y6350000D02*
X55880000Y6350000D01*
X62230000Y3810000D02*
X62230000Y5080000D01*
X55880000Y6350000D02*
X57150000Y5080000D01*
X57150000Y5080000D02*
X57150000Y3810000D01*
X57150000Y3810000D02*
X58420000Y2540000D01*
X31750000Y43180000D02*
X25400000Y43180000D01*
X25400000Y43180000D02*
X24130000Y44450000D01*
X3810000Y30480000D02*
X3810000Y36830000D01*
X77470000Y43180000D02*
X77470000Y39460000D01*
X77470000Y45720000D02*
X77470000Y43180000D01*
X76200000Y46990000D02*
X77470000Y45720000D01*
X50800000Y46990000D02*
X76200000Y46990000D01*
X3810000Y39370000D02*
X15240000Y50800000D01*
X3810000Y36830000D02*
X3810000Y39370000D01*
X15240000Y50800000D02*
X48265002Y50800000D01*
X48265002Y50800000D02*
X49530000Y49535002D01*
X49530000Y49535002D02*
X49530000Y48260000D01*
X49530000Y48260000D02*
X50800000Y46990000D01*
X64770000Y10160000D02*
X64770000Y5080000D01*
X64770000Y14060000D02*
X64770000Y10160000D01*
X72390000Y14060000D02*
X72390000Y10160000D01*
X72390000Y10160000D02*
X72390000Y8890000D01*
X72390000Y8890000D02*
X71120000Y7620000D01*
X71120000Y7620000D02*
X68580000Y7620000D01*
X68580000Y7620000D02*
X67310000Y6350000D01*
X67310000Y6350000D02*
X67310000Y5080000D01*
X34415009Y42289437D02*
X34415009Y43180000D01*
X34290000Y39460000D02*
X34290000Y42164428D01*
X34290000Y42164428D02*
X34415009Y42289437D01*
X36830000Y43180000D02*
X36830000Y39460000D01*
X39370000Y43180000D02*
X39370000Y39460000D01*
X41910000Y43180000D02*
X41910000Y39460000D01*
X46990000Y43180000D02*
X46990000Y39460000D01*
X46990000Y48260000D02*
X46990000Y43180000D01*
X49530000Y43180000D02*
X49530000Y39460000D01*
X52070000Y43180000D02*
X52070000Y39460000D01*
X54610000Y43180000D02*
X54610000Y39460000D01*
X57150000Y43180000D02*
X57150000Y39460000D01*
X59690000Y43180000D02*
X59690000Y39460000D01*
X62230000Y43180000D02*
X62230000Y39460000D01*
X72390000Y43180000D02*
X72390000Y39460000D01*
X67310000Y43180000D02*
X67310000Y39460000D01*
X69850000Y43180000D02*
X69850000Y39460000D01*
X74930000Y43180000D02*
X74930000Y39460000D01*
X31750000Y14060000D02*
X31750000Y10160000D01*
X34290000Y14060000D02*
X34290000Y10160000D01*
X36830000Y14060000D02*
X36830000Y10160000D01*
X39370000Y14060000D02*
X39370000Y10160000D01*
X41910000Y14060000D02*
X41910000Y10160000D01*
X44450000Y14060000D02*
X44450000Y10160000D01*
X46990000Y14060000D02*
X46990000Y10160000D01*
X13970000Y30480000D02*
X13970000Y29210000D01*
X13970000Y29210000D02*
X15240000Y27940000D01*
X15240000Y27940000D02*
X31750000Y27940000D01*
X31750000Y27940000D02*
X33020000Y26670000D01*
X48260000Y17780000D02*
X49530000Y16510000D01*
X49530000Y16510000D02*
X49530000Y14060000D01*
X33020000Y26670000D02*
X33020000Y20320000D01*
X33020000Y20320000D02*
X35560000Y17780000D01*
X35560000Y17780000D02*
X48260000Y17780000D01*
X49530000Y14060000D02*
X49530000Y10160000D01*
X16510000Y30480000D02*
X16510000Y33020000D01*
X16510000Y33020000D02*
X17780000Y34290000D01*
X35560000Y21590000D02*
X36830000Y20320000D01*
X17780000Y34290000D02*
X22860000Y34290000D01*
X22860000Y34290000D02*
X24130000Y33020000D01*
X24130000Y33020000D02*
X24130000Y31750000D01*
X24130000Y31750000D02*
X25400000Y30480000D01*
X25400000Y30480000D02*
X33020000Y30480000D01*
X33020000Y30480000D02*
X35560000Y27940000D01*
X35560000Y27940000D02*
X35560000Y21590000D01*
X36830000Y20320000D02*
X49530000Y20320000D01*
X49530000Y20320000D02*
X52070000Y17780000D01*
X52070000Y17780000D02*
X52070000Y14060000D01*
X52070000Y14060000D02*
X52070000Y10160000D01*
X54610000Y14060000D02*
X54610000Y10160000D01*
X57150000Y14060000D02*
X57150000Y10160000D01*
X59690000Y14060000D02*
X59690000Y10160000D01*
X67310000Y14060000D02*
X67310000Y10160000D01*
X69850000Y14060000D02*
X69850000Y10160000D01*
X74930000Y14060000D02*
X74930000Y10160000D01*
X13970000Y22860000D02*
X13970000Y20320000D01*
X13970000Y20320000D02*
X15240000Y19050000D01*
X15240000Y19050000D02*
X16430000Y19050000D01*
X11430000Y22860000D02*
X11430000Y19050000D01*
X6350000Y17780000D02*
X7620000Y16510000D01*
X7620000Y16510000D02*
X8810000Y16510000D01*
X6350000Y17780000D02*
X6350000Y22860000D01*
X16430000Y16510000D02*
X17780000Y16510000D01*
X17780000Y16510000D02*
X19050000Y17780000D01*
X16510000Y22860000D02*
X16510000Y22010572D01*
X16510000Y22010572D02*
X19050000Y19470572D01*
X19050000Y19470572D02*
X19050000Y17780000D01*
X8890000Y22860000D02*
X8890000Y20320000D01*
X8810000Y20240000D02*
X8810000Y19050000D01*
X8890000Y20320000D02*
X8810000Y20240000D01*
X3810000Y22860000D02*
X3810000Y19050000D01*
X11430000Y30480000D02*
X11430000Y31750000D01*
X17780000Y44450000D02*
X19050000Y44450000D01*
X19050000Y44450000D02*
X20320000Y43180000D01*
X20320000Y43180000D02*
X20320000Y40640000D01*
X20320000Y40640000D02*
X11430000Y31750000D01*
X8890000Y33020000D02*
X8890000Y30480000D01*
X17780000Y41910000D02*
X8890000Y33020000D01*
X64770000Y43180000D02*
X64770000Y39460000D01*
D20*
G36*
X84363000Y727000D02*
G01*
X727000Y727000D01*
X727000Y4034265D01*
X1533000Y4034265D01*
X1533000Y3585735D01*
X1620504Y3145824D01*
X1792149Y2731436D01*
X2041339Y2358497D01*
X2358497Y2041339D01*
X2731436Y1792149D01*
X3145824Y1620504D01*
X3585735Y1533000D01*
X4034265Y1533000D01*
X4474176Y1620504D01*
X4888564Y1792149D01*
X5261503Y2041339D01*
X5578661Y2358497D01*
X5827851Y2731436D01*
X5999496Y3145824D01*
X6087000Y3585735D01*
X6087000Y4034265D01*
X5999496Y4474176D01*
X5827851Y4888564D01*
X5578661Y5261503D01*
X5261503Y5578661D01*
X4888564Y5827851D01*
X4474176Y5999496D01*
X4034265Y6087000D01*
X3585735Y6087000D01*
X3145824Y5999496D01*
X2731436Y5827851D01*
X2358497Y5578661D01*
X2041339Y5261503D01*
X1792149Y4888564D01*
X1620504Y4474176D01*
X1533000Y4034265D01*
X727000Y4034265D01*
X727000Y22941154D01*
X2158000Y22941154D01*
X2158001Y18968845D01*
X2181904Y18726151D01*
X2276367Y18414748D01*
X2429767Y18127757D01*
X2636209Y17876208D01*
X2887758Y17669766D01*
X3174749Y17516366D01*
X3486152Y17421903D01*
X3810000Y17390007D01*
X4133849Y17421903D01*
X4445252Y17516366D01*
X4702433Y17653832D01*
X4721903Y17456152D01*
X4816366Y17144749D01*
X4969766Y16857758D01*
X5176208Y16606208D01*
X5239245Y16554475D01*
X6394477Y15399242D01*
X6446208Y15336208D01*
X6509242Y15284477D01*
X6509244Y15284475D01*
X6610838Y15201099D01*
X6697757Y15129766D01*
X6984748Y14976366D01*
X7296151Y14881903D01*
X7538845Y14858000D01*
X7538854Y14858000D01*
X7619999Y14850008D01*
X7701144Y14858000D01*
X8891155Y14858000D01*
X9133849Y14881903D01*
X9445252Y14976366D01*
X9732243Y15129766D01*
X9983792Y15336208D01*
X10190234Y15587757D01*
X10343634Y15874748D01*
X10438097Y16186151D01*
X10469993Y16510000D01*
X10438097Y16833849D01*
X10343634Y17145252D01*
X10190234Y17432243D01*
X9983792Y17683792D01*
X9866563Y17780000D01*
X9983792Y17876208D01*
X10120001Y18042178D01*
X10256209Y17876208D01*
X10507758Y17669766D01*
X10794749Y17516366D01*
X11106152Y17421903D01*
X11430000Y17390007D01*
X11753849Y17421903D01*
X12065252Y17516366D01*
X12352243Y17669766D01*
X12603792Y17876208D01*
X12810234Y18127757D01*
X12963634Y18414748D01*
X13058097Y18726151D01*
X13073292Y18880428D01*
X14014477Y17939242D01*
X14066208Y17876208D01*
X14129242Y17824477D01*
X14129244Y17824475D01*
X14183436Y17780001D01*
X14317757Y17669766D01*
X14604748Y17516366D01*
X14916151Y17421903D01*
X15037833Y17409918D01*
X14896366Y17145252D01*
X14801903Y16833849D01*
X14770007Y16510000D01*
X14801903Y16186151D01*
X14896366Y15874748D01*
X15049766Y15587757D01*
X15256208Y15336208D01*
X15507757Y15129766D01*
X15794748Y14976366D01*
X16106151Y14881903D01*
X16348845Y14858000D01*
X17698853Y14858000D01*
X17780000Y14850008D01*
X17861147Y14858000D01*
X17861155Y14858000D01*
X18103849Y14881903D01*
X18415252Y14976366D01*
X18702243Y15129766D01*
X18953792Y15336208D01*
X19005527Y15399247D01*
X20160758Y16554477D01*
X20223792Y16606208D01*
X20275526Y16669245D01*
X20430234Y16857757D01*
X20583633Y17144747D01*
X20583634Y17144748D01*
X20678097Y17456151D01*
X20702000Y17698845D01*
X20702000Y17698854D01*
X20709992Y17779999D01*
X20702000Y17861144D01*
X20702000Y19389428D01*
X20709992Y19470573D01*
X20702000Y19551718D01*
X20702000Y19551727D01*
X20678097Y19794421D01*
X20583634Y20105824D01*
X20430234Y20392815D01*
X20289870Y20563848D01*
X20275525Y20581328D01*
X20275523Y20581330D01*
X20223792Y20644364D01*
X20160759Y20696094D01*
X19715752Y21141100D01*
X19874547Y21225978D01*
X20099450Y21410550D01*
X20284022Y21635453D01*
X20320000Y21702763D01*
X20355978Y21635453D01*
X20540550Y21410550D01*
X20765454Y21225978D01*
X21022043Y21088828D01*
X21300458Y21004371D01*
X21590000Y20975854D01*
X21879543Y21004371D01*
X22157958Y21088828D01*
X22414547Y21225978D01*
X22639450Y21410550D01*
X22824022Y21635453D01*
X22961172Y21892042D01*
X23045629Y22170457D01*
X23067000Y22387445D01*
X23067000Y23332556D01*
X23045629Y23549543D01*
X22961172Y23827958D01*
X22824022Y24084547D01*
X22786720Y24130000D01*
X26280007Y24130000D01*
X26288000Y24048845D01*
X26288001Y7701157D01*
X26280008Y7620000D01*
X26311903Y7296152D01*
X26406367Y6984748D01*
X26559766Y6697758D01*
X26714475Y6509245D01*
X26714476Y6509244D01*
X26766209Y6446208D01*
X26829242Y6394478D01*
X27984477Y5239242D01*
X28036208Y5176208D01*
X28099242Y5124477D01*
X28099244Y5124475D01*
X28153436Y5080001D01*
X28287757Y4969766D01*
X28574748Y4816366D01*
X28886151Y4721903D01*
X29128845Y4698000D01*
X29128854Y4698000D01*
X29209999Y4690008D01*
X29291144Y4698000D01*
X55195720Y4698000D01*
X55498000Y4395719D01*
X55498000Y3891147D01*
X55490008Y3810000D01*
X55498000Y3728853D01*
X55498000Y3728845D01*
X55521903Y3486151D01*
X55541968Y3420007D01*
X55616367Y3174748D01*
X55769766Y2887758D01*
X55924475Y2699245D01*
X55924476Y2699244D01*
X55976209Y2636208D01*
X56039242Y2584478D01*
X57194477Y1429242D01*
X57246208Y1366208D01*
X57309242Y1314477D01*
X57309244Y1314475D01*
X57497757Y1159766D01*
X57784748Y1006366D01*
X58096151Y911903D01*
X58338845Y888000D01*
X58338854Y888000D01*
X58419999Y880008D01*
X58501144Y888000D01*
X60878853Y888000D01*
X60960000Y880008D01*
X61041147Y888000D01*
X61041155Y888000D01*
X61283849Y911903D01*
X61595252Y1006366D01*
X61882243Y1159766D01*
X62133792Y1366208D01*
X62185527Y1429247D01*
X63340759Y2584478D01*
X63403792Y2636208D01*
X63455526Y2699245D01*
X63610234Y2887757D01*
X63610235Y2887758D01*
X63763634Y3174748D01*
X63858097Y3486151D01*
X63877567Y3683833D01*
X64134749Y3546366D01*
X64446152Y3451903D01*
X64770000Y3420007D01*
X65093849Y3451903D01*
X65405252Y3546366D01*
X65692243Y3699766D01*
X65889323Y3861506D01*
X65894372Y3852059D01*
X65978973Y3748973D01*
X66082059Y3664372D01*
X66199670Y3601508D01*
X66327285Y3562796D01*
X66460000Y3549725D01*
X66668465Y3549725D01*
X66674749Y3546366D01*
X66986152Y3451903D01*
X67310000Y3420007D01*
X67633849Y3451903D01*
X67945252Y3546366D01*
X67951536Y3549725D01*
X68160000Y3549725D01*
X68292715Y3562796D01*
X68420330Y3601508D01*
X68537941Y3664372D01*
X68641027Y3748973D01*
X68725628Y3852059D01*
X68788492Y3969670D01*
X68808086Y4034265D01*
X79003000Y4034265D01*
X79003000Y3585735D01*
X79090504Y3145824D01*
X79262149Y2731436D01*
X79511339Y2358497D01*
X79828497Y2041339D01*
X80201436Y1792149D01*
X80615824Y1620504D01*
X81055735Y1533000D01*
X81504265Y1533000D01*
X81944176Y1620504D01*
X82358564Y1792149D01*
X82731503Y2041339D01*
X83048661Y2358497D01*
X83297851Y2731436D01*
X83469496Y3145824D01*
X83557000Y3585735D01*
X83557000Y4034265D01*
X83469496Y4474176D01*
X83297851Y4888564D01*
X83048661Y5261503D01*
X82731503Y5578661D01*
X82358564Y5827851D01*
X81944176Y5999496D01*
X81504265Y6087000D01*
X81055735Y6087000D01*
X80615824Y5999496D01*
X80201436Y5827851D01*
X79828497Y5578661D01*
X79511339Y5261503D01*
X79262149Y4888564D01*
X79090504Y4474176D01*
X79003000Y4034265D01*
X68808086Y4034265D01*
X68827204Y4097285D01*
X68840275Y4230000D01*
X68840275Y4438464D01*
X68843634Y4444748D01*
X68938097Y4756151D01*
X68962000Y4998845D01*
X68962000Y5665720D01*
X69264281Y5968000D01*
X71038853Y5968000D01*
X71120000Y5960008D01*
X71201147Y5968000D01*
X71201155Y5968000D01*
X71443849Y5991903D01*
X71755252Y6086366D01*
X72042243Y6239766D01*
X72293792Y6446208D01*
X72345527Y6509247D01*
X73500758Y7664477D01*
X73563792Y7716208D01*
X73770234Y7967757D01*
X73923634Y8254748D01*
X74018097Y8566151D01*
X74037567Y8763833D01*
X74294749Y8626366D01*
X74606152Y8531903D01*
X74930000Y8500007D01*
X75253849Y8531903D01*
X75565252Y8626366D01*
X75852243Y8779766D01*
X76103792Y8986208D01*
X76310234Y9237757D01*
X76463634Y9524748D01*
X76558097Y9836151D01*
X76582000Y10078845D01*
X76582000Y14141155D01*
X76558097Y14383849D01*
X76463634Y14695252D01*
X76310234Y14982243D01*
X76103792Y15233792D01*
X75852242Y15440234D01*
X75565251Y15593634D01*
X75253848Y15688097D01*
X74930000Y15719993D01*
X74606151Y15688097D01*
X74294748Y15593634D01*
X74007757Y15440234D01*
X73756208Y15233792D01*
X73660000Y15116563D01*
X73563792Y15233792D01*
X73312242Y15440234D01*
X73025251Y15593634D01*
X72713848Y15688097D01*
X72390000Y15719993D01*
X72066151Y15688097D01*
X71754748Y15593634D01*
X71467757Y15440234D01*
X71216208Y15233792D01*
X71120000Y15116563D01*
X71023792Y15233792D01*
X70772242Y15440234D01*
X70485251Y15593634D01*
X70173848Y15688097D01*
X69850000Y15719993D01*
X69526151Y15688097D01*
X69214748Y15593634D01*
X68927757Y15440234D01*
X68676208Y15233792D01*
X68580000Y15116563D01*
X68483792Y15233792D01*
X68232242Y15440234D01*
X67945251Y15593634D01*
X67633848Y15688097D01*
X67310000Y15719993D01*
X66986151Y15688097D01*
X66674748Y15593634D01*
X66387757Y15440234D01*
X66136208Y15233792D01*
X66040000Y15116563D01*
X65943792Y15233792D01*
X65692242Y15440234D01*
X65405251Y15593634D01*
X65093848Y15688097D01*
X64770000Y15719993D01*
X64446151Y15688097D01*
X64134748Y15593634D01*
X63847757Y15440234D01*
X63596208Y15233792D01*
X63389766Y14982242D01*
X63236366Y14695251D01*
X63141903Y14383848D01*
X63118000Y14141154D01*
X63118001Y10241164D01*
X63118000Y10241154D01*
X63118001Y6478537D01*
X62865252Y6613634D01*
X62553849Y6708097D01*
X62230000Y6739993D01*
X61906152Y6708097D01*
X61594749Y6613634D01*
X61307758Y6460234D01*
X61056209Y6253792D01*
X60849767Y6002243D01*
X60696367Y5715252D01*
X60601903Y5403849D01*
X60578000Y5161155D01*
X60578000Y4494281D01*
X60275720Y4192000D01*
X59104281Y4192000D01*
X58802000Y4494280D01*
X58802000Y4998856D01*
X58809992Y5080001D01*
X58802000Y5161146D01*
X58802000Y5161155D01*
X58778097Y5403849D01*
X58683634Y5715252D01*
X58530234Y6002243D01*
X58510612Y6026152D01*
X58375525Y6190756D01*
X58375523Y6190758D01*
X58323792Y6253792D01*
X58260759Y6305522D01*
X57105525Y7460755D01*
X57053792Y7523792D01*
X56802243Y7730234D01*
X56515252Y7883634D01*
X56203849Y7978097D01*
X55961155Y8002000D01*
X55961147Y8002000D01*
X55880000Y8009992D01*
X55798853Y8002000D01*
X29894281Y8002000D01*
X29592000Y8304280D01*
X29592000Y24048845D01*
X29599993Y24130000D01*
X29568097Y24453849D01*
X29473634Y24765252D01*
X29320234Y25052243D01*
X29113792Y25303792D01*
X28862243Y25510234D01*
X28575252Y25663634D01*
X28263849Y25758097D01*
X28021155Y25782000D01*
X27940000Y25789993D01*
X27858845Y25782000D01*
X27616151Y25758097D01*
X27304748Y25663634D01*
X27017757Y25510234D01*
X26766208Y25303792D01*
X26559766Y25052243D01*
X26406366Y24765252D01*
X26311903Y24453849D01*
X26280007Y24130000D01*
X22786720Y24130000D01*
X22639450Y24309450D01*
X22414546Y24494022D01*
X22157957Y24631172D01*
X21879542Y24715629D01*
X21590000Y24744146D01*
X21300457Y24715629D01*
X21022042Y24631172D01*
X20765453Y24494022D01*
X20540550Y24309450D01*
X20355978Y24084546D01*
X20320000Y24017237D01*
X20284022Y24084547D01*
X20099450Y24309450D01*
X19874546Y24494022D01*
X19617957Y24631172D01*
X19339542Y24715629D01*
X19050000Y24744146D01*
X18760457Y24715629D01*
X18482042Y24631172D01*
X18225453Y24494022D01*
X18000550Y24309450D01*
X17815978Y24084546D01*
X17780000Y24017237D01*
X17744022Y24084547D01*
X17559450Y24309450D01*
X17334546Y24494022D01*
X17077957Y24631172D01*
X16799542Y24715629D01*
X16510000Y24744146D01*
X16220457Y24715629D01*
X15942042Y24631172D01*
X15685453Y24494022D01*
X15460550Y24309450D01*
X15275978Y24084546D01*
X15240000Y24017237D01*
X15204022Y24084547D01*
X15019450Y24309450D01*
X14794546Y24494022D01*
X14537957Y24631172D01*
X14259542Y24715629D01*
X13970000Y24744146D01*
X13680457Y24715629D01*
X13402042Y24631172D01*
X13145453Y24494022D01*
X12920550Y24309450D01*
X12735978Y24084546D01*
X12700000Y24017237D01*
X12664022Y24084547D01*
X12479450Y24309450D01*
X12254546Y24494022D01*
X11997957Y24631172D01*
X11719542Y24715629D01*
X11430000Y24744146D01*
X11140457Y24715629D01*
X10862042Y24631172D01*
X10605453Y24494022D01*
X10380550Y24309450D01*
X10195978Y24084546D01*
X10160000Y24017237D01*
X10124022Y24084547D01*
X9939450Y24309450D01*
X9714546Y24494022D01*
X9457957Y24631172D01*
X9179542Y24715629D01*
X8890000Y24744146D01*
X8600457Y24715629D01*
X8322042Y24631172D01*
X8065453Y24494022D01*
X7840550Y24309450D01*
X7655978Y24084546D01*
X7620000Y24017237D01*
X7584022Y24084547D01*
X7399450Y24309450D01*
X7174546Y24494022D01*
X6917957Y24631172D01*
X6639542Y24715629D01*
X6350000Y24744146D01*
X6060457Y24715629D01*
X5782042Y24631172D01*
X5525453Y24494022D01*
X5300550Y24309450D01*
X5257650Y24257176D01*
X5238492Y24320330D01*
X5175628Y24437941D01*
X5091027Y24541027D01*
X4987941Y24625628D01*
X4870330Y24688492D01*
X4742715Y24727204D01*
X4610000Y24740275D01*
X3010000Y24740275D01*
X2877285Y24727204D01*
X2749670Y24688492D01*
X2632059Y24625628D01*
X2528973Y24541027D01*
X2444372Y24437941D01*
X2381508Y24320330D01*
X2342796Y24192715D01*
X2329725Y24060000D01*
X2329725Y23595079D01*
X2276366Y23495251D01*
X2181903Y23183848D01*
X2158000Y22941154D01*
X727000Y22941154D01*
X727000Y39370000D01*
X2150008Y39370000D01*
X2158001Y39288843D01*
X2158000Y36748846D01*
X2158001Y36748836D01*
X2158000Y30398846D01*
X2181903Y30156152D01*
X2276366Y29844749D01*
X2418653Y29578548D01*
X2438828Y29512042D01*
X2575978Y29255453D01*
X2760550Y29030550D01*
X2985454Y28845978D01*
X3242043Y28708828D01*
X3520458Y28624371D01*
X3810000Y28595854D01*
X4099543Y28624371D01*
X4377958Y28708828D01*
X4634547Y28845978D01*
X4859450Y29030550D01*
X5044022Y29255453D01*
X5181172Y29512042D01*
X5201346Y29578546D01*
X5343634Y29844748D01*
X5438097Y30156151D01*
X5462000Y30398845D01*
X5462000Y33020000D01*
X7230008Y33020000D01*
X7238000Y32938852D01*
X7238001Y30398845D01*
X7261904Y30156151D01*
X7356367Y29844748D01*
X7498653Y29578550D01*
X7518828Y29512042D01*
X7655978Y29255453D01*
X7840550Y29030550D01*
X8065454Y28845978D01*
X8322043Y28708828D01*
X8600458Y28624371D01*
X8890000Y28595854D01*
X9179543Y28624371D01*
X9457958Y28708828D01*
X9714547Y28845978D01*
X9939450Y29030550D01*
X10124022Y29255453D01*
X10160000Y29322763D01*
X10195978Y29255453D01*
X10380550Y29030550D01*
X10605454Y28845978D01*
X10862043Y28708828D01*
X11140458Y28624371D01*
X11430000Y28595854D01*
X11719543Y28624371D01*
X11997958Y28708828D01*
X12254547Y28845978D01*
X12339031Y28915312D01*
X12341903Y28886151D01*
X12361968Y28820007D01*
X12436367Y28574748D01*
X12589766Y28287758D01*
X12744475Y28099245D01*
X12744478Y28099242D01*
X12796209Y28036208D01*
X12859242Y27984478D01*
X14014477Y26829242D01*
X14066208Y26766208D01*
X14129242Y26714477D01*
X14129244Y26714475D01*
X14183436Y26670001D01*
X14317757Y26559766D01*
X14604748Y26406366D01*
X14916151Y26311903D01*
X15158845Y26288000D01*
X15158854Y26288000D01*
X15239999Y26280008D01*
X15321144Y26288000D01*
X31065720Y26288000D01*
X31368000Y25985719D01*
X31368001Y20401157D01*
X31360008Y20320000D01*
X31391903Y19996152D01*
X31486367Y19684748D01*
X31639766Y19397758D01*
X31794475Y19209245D01*
X31794478Y19209242D01*
X31846209Y19146208D01*
X31909242Y19094478D01*
X34334475Y16669244D01*
X34386208Y16606208D01*
X34449242Y16554477D01*
X34449244Y16554475D01*
X34503436Y16510001D01*
X34637757Y16399766D01*
X34924748Y16246366D01*
X35236151Y16151903D01*
X35478845Y16128000D01*
X35478854Y16128000D01*
X35559999Y16120008D01*
X35641144Y16128000D01*
X47575720Y16128000D01*
X47878000Y15825719D01*
X47878000Y15458537D01*
X47625251Y15593634D01*
X47313848Y15688097D01*
X46990000Y15719993D01*
X46666151Y15688097D01*
X46354748Y15593634D01*
X46067757Y15440234D01*
X45816208Y15233792D01*
X45720000Y15116563D01*
X45623792Y15233792D01*
X45372242Y15440234D01*
X45085251Y15593634D01*
X44773848Y15688097D01*
X44450000Y15719993D01*
X44126151Y15688097D01*
X43814748Y15593634D01*
X43527757Y15440234D01*
X43276208Y15233792D01*
X43180000Y15116563D01*
X43083792Y15233792D01*
X42832242Y15440234D01*
X42545251Y15593634D01*
X42233848Y15688097D01*
X41910000Y15719993D01*
X41586151Y15688097D01*
X41274748Y15593634D01*
X40987757Y15440234D01*
X40736208Y15233792D01*
X40640000Y15116563D01*
X40543792Y15233792D01*
X40292242Y15440234D01*
X40005251Y15593634D01*
X39693848Y15688097D01*
X39370000Y15719993D01*
X39046151Y15688097D01*
X38734748Y15593634D01*
X38447757Y15440234D01*
X38196208Y15233792D01*
X38100000Y15116563D01*
X38003792Y15233792D01*
X37752242Y15440234D01*
X37465251Y15593634D01*
X37153848Y15688097D01*
X36830000Y15719993D01*
X36506151Y15688097D01*
X36194748Y15593634D01*
X35907757Y15440234D01*
X35656208Y15233792D01*
X35560000Y15116563D01*
X35463792Y15233792D01*
X35212242Y15440234D01*
X34925251Y15593634D01*
X34613848Y15688097D01*
X34290000Y15719993D01*
X33966151Y15688097D01*
X33654748Y15593634D01*
X33367757Y15440234D01*
X33116208Y15233792D01*
X33020000Y15116563D01*
X32923792Y15233792D01*
X32672242Y15440234D01*
X32385251Y15593634D01*
X32073848Y15688097D01*
X31750000Y15719993D01*
X31426151Y15688097D01*
X31114748Y15593634D01*
X30827757Y15440234D01*
X30576208Y15233792D01*
X30369766Y14982242D01*
X30216366Y14695251D01*
X30121903Y14383848D01*
X30098000Y14141154D01*
X30098001Y10078845D01*
X30121904Y9836151D01*
X30216367Y9524748D01*
X30369767Y9237757D01*
X30576209Y8986208D01*
X30827758Y8779766D01*
X31114749Y8626366D01*
X31426152Y8531903D01*
X31750000Y8500007D01*
X32073849Y8531903D01*
X32385252Y8626366D01*
X32672243Y8779766D01*
X32923792Y8986208D01*
X33020001Y9103438D01*
X33116209Y8986208D01*
X33367758Y8779766D01*
X33654749Y8626366D01*
X33966152Y8531903D01*
X34290000Y8500007D01*
X34613849Y8531903D01*
X34925252Y8626366D01*
X35212243Y8779766D01*
X35463792Y8986208D01*
X35560001Y9103438D01*
X35656209Y8986208D01*
X35907758Y8779766D01*
X36194749Y8626366D01*
X36506152Y8531903D01*
X36830000Y8500007D01*
X37153849Y8531903D01*
X37465252Y8626366D01*
X37752243Y8779766D01*
X38003792Y8986208D01*
X38100001Y9103438D01*
X38196209Y8986208D01*
X38447758Y8779766D01*
X38734749Y8626366D01*
X39046152Y8531903D01*
X39370000Y8500007D01*
X39693849Y8531903D01*
X40005252Y8626366D01*
X40292243Y8779766D01*
X40543792Y8986208D01*
X40640001Y9103438D01*
X40736209Y8986208D01*
X40987758Y8779766D01*
X41274749Y8626366D01*
X41586152Y8531903D01*
X41910000Y8500007D01*
X42233849Y8531903D01*
X42545252Y8626366D01*
X42832243Y8779766D01*
X43083792Y8986208D01*
X43180001Y9103438D01*
X43276209Y8986208D01*
X43527758Y8779766D01*
X43814749Y8626366D01*
X44126152Y8531903D01*
X44450000Y8500007D01*
X44773849Y8531903D01*
X45085252Y8626366D01*
X45372243Y8779766D01*
X45623792Y8986208D01*
X45720001Y9103438D01*
X45816209Y8986208D01*
X46067758Y8779766D01*
X46354749Y8626366D01*
X46666152Y8531903D01*
X46990000Y8500007D01*
X47313849Y8531903D01*
X47625252Y8626366D01*
X47912243Y8779766D01*
X48163792Y8986208D01*
X48260001Y9103438D01*
X48356209Y8986208D01*
X48607758Y8779766D01*
X48894749Y8626366D01*
X49206152Y8531903D01*
X49530000Y8500007D01*
X49853849Y8531903D01*
X50165252Y8626366D01*
X50452243Y8779766D01*
X50703792Y8986208D01*
X50800001Y9103438D01*
X50896209Y8986208D01*
X51147758Y8779766D01*
X51434749Y8626366D01*
X51746152Y8531903D01*
X52070000Y8500007D01*
X52393849Y8531903D01*
X52705252Y8626366D01*
X52992243Y8779766D01*
X53243792Y8986208D01*
X53340001Y9103438D01*
X53436209Y8986208D01*
X53687758Y8779766D01*
X53974749Y8626366D01*
X54286152Y8531903D01*
X54610000Y8500007D01*
X54933849Y8531903D01*
X55245252Y8626366D01*
X55532243Y8779766D01*
X55783792Y8986208D01*
X55880001Y9103438D01*
X55976209Y8986208D01*
X56227758Y8779766D01*
X56514749Y8626366D01*
X56826152Y8531903D01*
X57150000Y8500007D01*
X57473849Y8531903D01*
X57785252Y8626366D01*
X58072243Y8779766D01*
X58323792Y8986208D01*
X58420001Y9103438D01*
X58516209Y8986208D01*
X58767758Y8779766D01*
X59054749Y8626366D01*
X59366152Y8531903D01*
X59690000Y8500007D01*
X60013849Y8531903D01*
X60325252Y8626366D01*
X60612243Y8779766D01*
X60863792Y8986208D01*
X61070234Y9237757D01*
X61223634Y9524748D01*
X61318097Y9836151D01*
X61342000Y10078845D01*
X61342000Y14141155D01*
X61318097Y14383849D01*
X61223634Y14695252D01*
X61070234Y14982243D01*
X60863792Y15233792D01*
X60612242Y15440234D01*
X60325251Y15593634D01*
X60013848Y15688097D01*
X59690000Y15719993D01*
X59366151Y15688097D01*
X59054748Y15593634D01*
X58767757Y15440234D01*
X58516208Y15233792D01*
X58420000Y15116563D01*
X58323792Y15233792D01*
X58072242Y15440234D01*
X57785251Y15593634D01*
X57473848Y15688097D01*
X57150000Y15719993D01*
X56826151Y15688097D01*
X56514748Y15593634D01*
X56227757Y15440234D01*
X55976208Y15233792D01*
X55880000Y15116563D01*
X55783792Y15233792D01*
X55532242Y15440234D01*
X55245251Y15593634D01*
X54933848Y15688097D01*
X54610000Y15719993D01*
X54286151Y15688097D01*
X53974748Y15593634D01*
X53722000Y15458537D01*
X53722000Y17698856D01*
X53729992Y17780001D01*
X53722000Y17861146D01*
X53722000Y17861155D01*
X53698097Y18103849D01*
X53603634Y18415252D01*
X53450234Y18702243D01*
X53243792Y18953792D01*
X53180759Y19005522D01*
X50755527Y21430753D01*
X50703792Y21493792D01*
X50452243Y21700234D01*
X50165252Y21853634D01*
X49853849Y21948097D01*
X49611155Y21972000D01*
X49611147Y21972000D01*
X49530000Y21979992D01*
X49448853Y21972000D01*
X37514281Y21972000D01*
X37212000Y22274280D01*
X37212000Y27858856D01*
X37219992Y27940001D01*
X37212000Y28021146D01*
X37212000Y28021155D01*
X37188097Y28263849D01*
X37093634Y28575252D01*
X36940234Y28862243D01*
X36831544Y28994682D01*
X36785525Y29050756D01*
X36785523Y29050758D01*
X36733792Y29113792D01*
X36670759Y29165522D01*
X34245527Y31590753D01*
X34193792Y31653792D01*
X33942243Y31860234D01*
X33655252Y32013634D01*
X33343849Y32108097D01*
X33101155Y32132000D01*
X33101147Y32132000D01*
X33020000Y32139992D01*
X32938853Y32132000D01*
X26084281Y32132000D01*
X25782000Y32434280D01*
X25782000Y32938856D01*
X25789992Y33020001D01*
X25782000Y33101146D01*
X25782000Y33101155D01*
X25758097Y33343849D01*
X25663634Y33655252D01*
X25510234Y33942243D01*
X25471034Y33990008D01*
X25355525Y34130756D01*
X25355523Y34130758D01*
X25303792Y34193792D01*
X25240759Y34245522D01*
X24085527Y35400753D01*
X24033792Y35463792D01*
X23782243Y35670234D01*
X23495252Y35823634D01*
X23183849Y35918097D01*
X22941155Y35942000D01*
X22941147Y35942000D01*
X22860000Y35949992D01*
X22778853Y35942000D01*
X17958280Y35942000D01*
X21430753Y39414473D01*
X21493792Y39466208D01*
X21700234Y39717757D01*
X21853634Y40004748D01*
X21948097Y40316151D01*
X21972000Y40558845D01*
X21972000Y40558852D01*
X21979992Y40640000D01*
X21972000Y40721147D01*
X21972000Y43098856D01*
X21979992Y43180001D01*
X21972000Y43261146D01*
X21972000Y43261155D01*
X21948097Y43503849D01*
X21853634Y43815252D01*
X21700234Y44102243D01*
X21680612Y44126152D01*
X21545525Y44290756D01*
X21545523Y44290758D01*
X21493792Y44353792D01*
X21430759Y44405522D01*
X21386281Y44450000D01*
X22470008Y44450000D01*
X22501903Y44126152D01*
X22596367Y43814748D01*
X22599725Y43808466D01*
X22599725Y43600000D01*
X22612796Y43467285D01*
X22651508Y43339670D01*
X22714372Y43222059D01*
X22798973Y43118973D01*
X22902059Y43034372D01*
X23019670Y42971508D01*
X23147285Y42932796D01*
X23280000Y42919725D01*
X23323995Y42919725D01*
X24174477Y42069242D01*
X24226208Y42006208D01*
X24289242Y41954477D01*
X24289244Y41954475D01*
X24292188Y41952059D01*
X24477757Y41799766D01*
X24764748Y41646366D01*
X25076151Y41551903D01*
X25318845Y41528000D01*
X25318854Y41528000D01*
X25399999Y41520008D01*
X25481144Y41528000D01*
X30098000Y41528000D01*
X30098001Y40144281D01*
X26829247Y36875527D01*
X26766208Y36823792D01*
X26559766Y36572242D01*
X26406366Y36285251D01*
X26311903Y35973848D01*
X26288000Y35731154D01*
X26288000Y35731147D01*
X26280008Y35650000D01*
X26288000Y35568853D01*
X26288000Y34371155D01*
X26280007Y34290000D01*
X26311903Y33966151D01*
X26406366Y33654748D01*
X26559766Y33367757D01*
X26766208Y33116208D01*
X27017757Y32909766D01*
X27304748Y32756366D01*
X27616151Y32661903D01*
X27858845Y32638000D01*
X27940000Y32630007D01*
X28021155Y32638000D01*
X28263849Y32661903D01*
X28575252Y32756366D01*
X28862243Y32909766D01*
X29113792Y33116208D01*
X29320234Y33367757D01*
X29473634Y33654748D01*
X29568097Y33966151D01*
X29599993Y34290000D01*
X29592000Y34371155D01*
X29592000Y34965720D01*
X32860753Y38234473D01*
X32923792Y38286208D01*
X33020000Y38403437D01*
X33116208Y38286208D01*
X33367757Y38079766D01*
X33654748Y37926366D01*
X33966151Y37831903D01*
X34290000Y37800007D01*
X34613848Y37831903D01*
X34925251Y37926366D01*
X35212242Y38079766D01*
X35463792Y38286208D01*
X35560001Y38403438D01*
X35656209Y38286208D01*
X35907758Y38079766D01*
X36194749Y37926366D01*
X36506152Y37831903D01*
X36830000Y37800007D01*
X37153849Y37831903D01*
X37465252Y37926366D01*
X37752243Y38079766D01*
X38003792Y38286208D01*
X38100001Y38403438D01*
X38196209Y38286208D01*
X38447758Y38079766D01*
X38734749Y37926366D01*
X39046152Y37831903D01*
X39370000Y37800007D01*
X39693849Y37831903D01*
X40005252Y37926366D01*
X40292243Y38079766D01*
X40543792Y38286208D01*
X40640001Y38403438D01*
X40736209Y38286208D01*
X40987758Y38079766D01*
X41274749Y37926366D01*
X41586152Y37831903D01*
X41910000Y37800007D01*
X42233849Y37831903D01*
X42545252Y37926366D01*
X42832243Y38079766D01*
X43083792Y38286208D01*
X43290234Y38537757D01*
X43443634Y38824748D01*
X43538097Y39136151D01*
X43562000Y39378845D01*
X43562000Y43261155D01*
X43538097Y43503849D01*
X43443634Y43815252D01*
X43290234Y44102243D01*
X43083792Y44353792D01*
X42832242Y44560234D01*
X42545251Y44713634D01*
X42233848Y44808097D01*
X41910000Y44839993D01*
X41586151Y44808097D01*
X41274748Y44713634D01*
X40987757Y44560234D01*
X40736208Y44353792D01*
X40640000Y44236563D01*
X40543792Y44353792D01*
X40292242Y44560234D01*
X40005251Y44713634D01*
X39693848Y44808097D01*
X39370000Y44839993D01*
X39046151Y44808097D01*
X38734748Y44713634D01*
X38447757Y44560234D01*
X38196208Y44353792D01*
X38100000Y44236563D01*
X38003792Y44353792D01*
X37752242Y44560234D01*
X37465251Y44713634D01*
X37153848Y44808097D01*
X36830000Y44839993D01*
X36506151Y44808097D01*
X36194748Y44713634D01*
X35907757Y44560234D01*
X35656208Y44353792D01*
X35622505Y44312724D01*
X35588801Y44353792D01*
X35337252Y44560234D01*
X35050261Y44713634D01*
X34738858Y44808097D01*
X34415009Y44839993D01*
X34091161Y44808097D01*
X33779758Y44713634D01*
X33492767Y44560234D01*
X33241218Y44353792D01*
X33082505Y44160401D01*
X32923792Y44353792D01*
X32672243Y44560234D01*
X32385252Y44713634D01*
X32073849Y44808097D01*
X31831155Y44832000D01*
X31750000Y44839993D01*
X31668845Y44832000D01*
X26084281Y44832000D01*
X25660275Y45256005D01*
X25660275Y45300000D01*
X25647204Y45432715D01*
X25608492Y45560330D01*
X25545628Y45677941D01*
X25461027Y45781027D01*
X25357941Y45865628D01*
X25240330Y45928492D01*
X25112715Y45967204D01*
X24980000Y45980275D01*
X24771534Y45980275D01*
X24765252Y45983633D01*
X24453848Y46078097D01*
X24130000Y46109992D01*
X23806152Y46078097D01*
X23494748Y45983633D01*
X23488466Y45980275D01*
X23280000Y45980275D01*
X23147285Y45967204D01*
X23019670Y45928492D01*
X22902059Y45865628D01*
X22798973Y45781027D01*
X22714372Y45677941D01*
X22651508Y45560330D01*
X22612796Y45432715D01*
X22599725Y45300000D01*
X22599725Y45091534D01*
X22596367Y45085252D01*
X22501903Y44773848D01*
X22470008Y44450000D01*
X21386281Y44450000D01*
X20275527Y45560753D01*
X20223792Y45623792D01*
X19972243Y45830234D01*
X19685252Y45983634D01*
X19373849Y46078097D01*
X19131155Y46102000D01*
X19131147Y46102000D01*
X19050000Y46109992D01*
X18968853Y46102000D01*
X17698845Y46102000D01*
X17456151Y46078097D01*
X17144748Y45983634D01*
X16857757Y45830234D01*
X16606208Y45623792D01*
X16399766Y45372243D01*
X16246366Y45085252D01*
X16151903Y44773849D01*
X16120007Y44450000D01*
X16151903Y44126151D01*
X16246366Y43814748D01*
X16399766Y43527757D01*
X16561506Y43330677D01*
X16552059Y43325628D01*
X16448973Y43241027D01*
X16364372Y43137941D01*
X16301508Y43020330D01*
X16262796Y42892715D01*
X16249725Y42760000D01*
X16249725Y42716005D01*
X7779247Y34245527D01*
X7716208Y34193792D01*
X7509766Y33942242D01*
X7356366Y33655251D01*
X7261903Y33343848D01*
X7238000Y33101154D01*
X7238000Y33101147D01*
X7230008Y33020000D01*
X5462000Y33020000D01*
X5462000Y38685720D01*
X15924281Y49148000D01*
X45463468Y49148000D01*
X45459725Y49110000D01*
X45459725Y48901535D01*
X45456366Y48895251D01*
X45361903Y48583848D01*
X45338000Y48341154D01*
X45338001Y43261164D01*
X45338000Y43261154D01*
X45338001Y39378845D01*
X45361904Y39136151D01*
X45456367Y38824748D01*
X45609767Y38537757D01*
X45816209Y38286208D01*
X46067758Y38079766D01*
X46354749Y37926366D01*
X46666152Y37831903D01*
X46990000Y37800007D01*
X47313849Y37831903D01*
X47625252Y37926366D01*
X47912243Y38079766D01*
X48163792Y38286208D01*
X48260001Y38403438D01*
X48356209Y38286208D01*
X48607758Y38079766D01*
X48894749Y37926366D01*
X49206152Y37831903D01*
X49530000Y37800007D01*
X49853849Y37831903D01*
X50165252Y37926366D01*
X50452243Y38079766D01*
X50703792Y38286208D01*
X50800001Y38403438D01*
X50896209Y38286208D01*
X51147758Y38079766D01*
X51434749Y37926366D01*
X51746152Y37831903D01*
X52070000Y37800007D01*
X52393849Y37831903D01*
X52705252Y37926366D01*
X52992243Y38079766D01*
X53243792Y38286208D01*
X53340001Y38403438D01*
X53436209Y38286208D01*
X53687758Y38079766D01*
X53974749Y37926366D01*
X54286152Y37831903D01*
X54610000Y37800007D01*
X54933849Y37831903D01*
X55245252Y37926366D01*
X55532243Y38079766D01*
X55783792Y38286208D01*
X55880001Y38403438D01*
X55976209Y38286208D01*
X56227758Y38079766D01*
X56514749Y37926366D01*
X56826152Y37831903D01*
X57150000Y37800007D01*
X57473849Y37831903D01*
X57785252Y37926366D01*
X58072243Y38079766D01*
X58323792Y38286208D01*
X58420001Y38403438D01*
X58516209Y38286208D01*
X58767758Y38079766D01*
X59054749Y37926366D01*
X59366152Y37831903D01*
X59690000Y37800007D01*
X60013849Y37831903D01*
X60325252Y37926366D01*
X60612243Y38079766D01*
X60863792Y38286208D01*
X60960001Y38403438D01*
X61056209Y38286208D01*
X61307758Y38079766D01*
X61594749Y37926366D01*
X61906152Y37831903D01*
X62230000Y37800007D01*
X62553849Y37831903D01*
X62865252Y37926366D01*
X63152243Y38079766D01*
X63403792Y38286208D01*
X63500001Y38403438D01*
X63596209Y38286208D01*
X63847758Y38079766D01*
X64134749Y37926366D01*
X64446152Y37831903D01*
X64770000Y37800007D01*
X65093849Y37831903D01*
X65405252Y37926366D01*
X65692243Y38079766D01*
X65943792Y38286208D01*
X66040001Y38403438D01*
X66136209Y38286208D01*
X66387758Y38079766D01*
X66674749Y37926366D01*
X66986152Y37831903D01*
X67310000Y37800007D01*
X67633849Y37831903D01*
X67945252Y37926366D01*
X68232243Y38079766D01*
X68483792Y38286208D01*
X68580001Y38403438D01*
X68676209Y38286208D01*
X68927758Y38079766D01*
X69214749Y37926366D01*
X69526152Y37831903D01*
X69850000Y37800007D01*
X70173849Y37831903D01*
X70485252Y37926366D01*
X70772243Y38079766D01*
X71023792Y38286208D01*
X71120001Y38403438D01*
X71216209Y38286208D01*
X71467758Y38079766D01*
X71754749Y37926366D01*
X72066152Y37831903D01*
X72390000Y37800007D01*
X72713849Y37831903D01*
X73025252Y37926366D01*
X73312243Y38079766D01*
X73563792Y38286208D01*
X73660001Y38403438D01*
X73756209Y38286208D01*
X74007758Y38079766D01*
X74294749Y37926366D01*
X74606152Y37831903D01*
X74930000Y37800007D01*
X75253849Y37831903D01*
X75565252Y37926366D01*
X75852243Y38079766D01*
X76102654Y38285274D01*
X76104372Y38282059D01*
X76188973Y38178973D01*
X76292059Y38094372D01*
X76409670Y38031508D01*
X76537285Y37992796D01*
X76670000Y37979725D01*
X76734921Y37979725D01*
X76834749Y37926366D01*
X77146152Y37831903D01*
X77470000Y37800007D01*
X77793849Y37831903D01*
X78105252Y37926366D01*
X78205080Y37979725D01*
X78270000Y37979725D01*
X78402715Y37992796D01*
X78530330Y38031508D01*
X78647941Y38094372D01*
X78751027Y38178973D01*
X78835628Y38282059D01*
X78898492Y38399670D01*
X78937204Y38527285D01*
X78950275Y38660000D01*
X78950275Y38724920D01*
X79003634Y38824748D01*
X79098097Y39136151D01*
X79122000Y39378845D01*
X79122000Y45638856D01*
X79129992Y45720001D01*
X79122000Y45801146D01*
X79122000Y45801155D01*
X79098097Y46043849D01*
X79003634Y46355252D01*
X78850234Y46642243D01*
X78643792Y46893792D01*
X78580759Y46945522D01*
X77425527Y48100753D01*
X77373792Y48163792D01*
X77122243Y48370234D01*
X76835252Y48523634D01*
X76523849Y48618097D01*
X76281155Y48642000D01*
X76281147Y48642000D01*
X76200000Y48649992D01*
X76118853Y48642000D01*
X51484281Y48642000D01*
X51182000Y48944280D01*
X51182000Y49453858D01*
X51189992Y49535003D01*
X51182000Y49616148D01*
X51182000Y49616157D01*
X51168398Y49754265D01*
X79003000Y49754265D01*
X79003000Y49305735D01*
X79090504Y48865824D01*
X79262149Y48451436D01*
X79511339Y48078497D01*
X79828497Y47761339D01*
X80201436Y47512149D01*
X80615824Y47340504D01*
X81055735Y47253000D01*
X81504265Y47253000D01*
X81944176Y47340504D01*
X82358564Y47512149D01*
X82731503Y47761339D01*
X83048661Y48078497D01*
X83297851Y48451436D01*
X83469496Y48865824D01*
X83557000Y49305735D01*
X83557000Y49754265D01*
X83469496Y50194176D01*
X83297851Y50608564D01*
X83048661Y50981503D01*
X82731503Y51298661D01*
X82358564Y51547851D01*
X81944176Y51719496D01*
X81504265Y51807000D01*
X81055735Y51807000D01*
X80615824Y51719496D01*
X80201436Y51547851D01*
X79828497Y51298661D01*
X79511339Y50981503D01*
X79262149Y50608564D01*
X79090504Y50194176D01*
X79003000Y49754265D01*
X51168398Y49754265D01*
X51158097Y49858851D01*
X51063634Y50170254D01*
X50910234Y50457245D01*
X50703792Y50708794D01*
X50640759Y50760524D01*
X49490529Y51910753D01*
X49438794Y51973792D01*
X49187245Y52180234D01*
X48900254Y52333634D01*
X48588851Y52428097D01*
X48346157Y52452000D01*
X48346149Y52452000D01*
X48265002Y52459992D01*
X48183855Y52452000D01*
X15321147Y52452000D01*
X15239999Y52459992D01*
X15158852Y52452000D01*
X15158845Y52452000D01*
X14916151Y52428097D01*
X14604748Y52333634D01*
X14317757Y52180234D01*
X14129244Y52025525D01*
X14129242Y52025523D01*
X14066208Y51973792D01*
X14014477Y51910758D01*
X2699243Y40595523D01*
X2636209Y40543792D01*
X2584478Y40480758D01*
X2584475Y40480755D01*
X2429766Y40292242D01*
X2276367Y40005252D01*
X2181903Y39693848D01*
X2150008Y39370000D01*
X727000Y39370000D01*
X727000Y49754265D01*
X1533000Y49754265D01*
X1533000Y49305735D01*
X1620504Y48865824D01*
X1792149Y48451436D01*
X2041339Y48078497D01*
X2358497Y47761339D01*
X2731436Y47512149D01*
X3145824Y47340504D01*
X3585735Y47253000D01*
X4034265Y47253000D01*
X4474176Y47340504D01*
X4888564Y47512149D01*
X5261503Y47761339D01*
X5578661Y48078497D01*
X5827851Y48451436D01*
X5999496Y48865824D01*
X6087000Y49305735D01*
X6087000Y49754265D01*
X5999496Y50194176D01*
X5827851Y50608564D01*
X5578661Y50981503D01*
X5261503Y51298661D01*
X4888564Y51547851D01*
X4474176Y51719496D01*
X4034265Y51807000D01*
X3585735Y51807000D01*
X3145824Y51719496D01*
X2731436Y51547851D01*
X2358497Y51298661D01*
X2041339Y50981503D01*
X1792149Y50608564D01*
X1620504Y50194176D01*
X1533000Y49754265D01*
X727000Y49754265D01*
X727000Y52613000D01*
X84363001Y52613000D01*
X84363000Y727000D01*
G37*
X84363000Y727000D02*
X727000Y727000D01*
X727000Y4034265D01*
X1533000Y4034265D01*
X1533000Y3585735D01*
X1620504Y3145824D01*
X1792149Y2731436D01*
X2041339Y2358497D01*
X2358497Y2041339D01*
X2731436Y1792149D01*
X3145824Y1620504D01*
X3585735Y1533000D01*
X4034265Y1533000D01*
X4474176Y1620504D01*
X4888564Y1792149D01*
X5261503Y2041339D01*
X5578661Y2358497D01*
X5827851Y2731436D01*
X5999496Y3145824D01*
X6087000Y3585735D01*
X6087000Y4034265D01*
X5999496Y4474176D01*
X5827851Y4888564D01*
X5578661Y5261503D01*
X5261503Y5578661D01*
X4888564Y5827851D01*
X4474176Y5999496D01*
X4034265Y6087000D01*
X3585735Y6087000D01*
X3145824Y5999496D01*
X2731436Y5827851D01*
X2358497Y5578661D01*
X2041339Y5261503D01*
X1792149Y4888564D01*
X1620504Y4474176D01*
X1533000Y4034265D01*
X727000Y4034265D01*
X727000Y22941154D01*
X2158000Y22941154D01*
X2158001Y18968845D01*
X2181904Y18726151D01*
X2276367Y18414748D01*
X2429767Y18127757D01*
X2636209Y17876208D01*
X2887758Y17669766D01*
X3174749Y17516366D01*
X3486152Y17421903D01*
X3810000Y17390007D01*
X4133849Y17421903D01*
X4445252Y17516366D01*
X4702433Y17653832D01*
X4721903Y17456152D01*
X4816366Y17144749D01*
X4969766Y16857758D01*
X5176208Y16606208D01*
X5239245Y16554475D01*
X6394477Y15399242D01*
X6446208Y15336208D01*
X6509242Y15284477D01*
X6509244Y15284475D01*
X6610838Y15201099D01*
X6697757Y15129766D01*
X6984748Y14976366D01*
X7296151Y14881903D01*
X7538845Y14858000D01*
X7538854Y14858000D01*
X7619999Y14850008D01*
X7701144Y14858000D01*
X8891155Y14858000D01*
X9133849Y14881903D01*
X9445252Y14976366D01*
X9732243Y15129766D01*
X9983792Y15336208D01*
X10190234Y15587757D01*
X10343634Y15874748D01*
X10438097Y16186151D01*
X10469993Y16510000D01*
X10438097Y16833849D01*
X10343634Y17145252D01*
X10190234Y17432243D01*
X9983792Y17683792D01*
X9866563Y17780000D01*
X9983792Y17876208D01*
X10120001Y18042178D01*
X10256209Y17876208D01*
X10507758Y17669766D01*
X10794749Y17516366D01*
X11106152Y17421903D01*
X11430000Y17390007D01*
X11753849Y17421903D01*
X12065252Y17516366D01*
X12352243Y17669766D01*
X12603792Y17876208D01*
X12810234Y18127757D01*
X12963634Y18414748D01*
X13058097Y18726151D01*
X13073292Y18880428D01*
X14014477Y17939242D01*
X14066208Y17876208D01*
X14129242Y17824477D01*
X14129244Y17824475D01*
X14183436Y17780001D01*
X14317757Y17669766D01*
X14604748Y17516366D01*
X14916151Y17421903D01*
X15037833Y17409918D01*
X14896366Y17145252D01*
X14801903Y16833849D01*
X14770007Y16510000D01*
X14801903Y16186151D01*
X14896366Y15874748D01*
X15049766Y15587757D01*
X15256208Y15336208D01*
X15507757Y15129766D01*
X15794748Y14976366D01*
X16106151Y14881903D01*
X16348845Y14858000D01*
X17698853Y14858000D01*
X17780000Y14850008D01*
X17861147Y14858000D01*
X17861155Y14858000D01*
X18103849Y14881903D01*
X18415252Y14976366D01*
X18702243Y15129766D01*
X18953792Y15336208D01*
X19005527Y15399247D01*
X20160758Y16554477D01*
X20223792Y16606208D01*
X20275526Y16669245D01*
X20430234Y16857757D01*
X20583633Y17144747D01*
X20583634Y17144748D01*
X20678097Y17456151D01*
X20702000Y17698845D01*
X20702000Y17698854D01*
X20709992Y17779999D01*
X20702000Y17861144D01*
X20702000Y19389428D01*
X20709992Y19470573D01*
X20702000Y19551718D01*
X20702000Y19551727D01*
X20678097Y19794421D01*
X20583634Y20105824D01*
X20430234Y20392815D01*
X20289870Y20563848D01*
X20275525Y20581328D01*
X20275523Y20581330D01*
X20223792Y20644364D01*
X20160759Y20696094D01*
X19715752Y21141100D01*
X19874547Y21225978D01*
X20099450Y21410550D01*
X20284022Y21635453D01*
X20320000Y21702763D01*
X20355978Y21635453D01*
X20540550Y21410550D01*
X20765454Y21225978D01*
X21022043Y21088828D01*
X21300458Y21004371D01*
X21590000Y20975854D01*
X21879543Y21004371D01*
X22157958Y21088828D01*
X22414547Y21225978D01*
X22639450Y21410550D01*
X22824022Y21635453D01*
X22961172Y21892042D01*
X23045629Y22170457D01*
X23067000Y22387445D01*
X23067000Y23332556D01*
X23045629Y23549543D01*
X22961172Y23827958D01*
X22824022Y24084547D01*
X22786720Y24130000D01*
X26280007Y24130000D01*
X26288000Y24048845D01*
X26288001Y7701157D01*
X26280008Y7620000D01*
X26311903Y7296152D01*
X26406367Y6984748D01*
X26559766Y6697758D01*
X26714475Y6509245D01*
X26714476Y6509244D01*
X26766209Y6446208D01*
X26829242Y6394478D01*
X27984477Y5239242D01*
X28036208Y5176208D01*
X28099242Y5124477D01*
X28099244Y5124475D01*
X28153436Y5080001D01*
X28287757Y4969766D01*
X28574748Y4816366D01*
X28886151Y4721903D01*
X29128845Y4698000D01*
X29128854Y4698000D01*
X29209999Y4690008D01*
X29291144Y4698000D01*
X55195720Y4698000D01*
X55498000Y4395719D01*
X55498000Y3891147D01*
X55490008Y3810000D01*
X55498000Y3728853D01*
X55498000Y3728845D01*
X55521903Y3486151D01*
X55541968Y3420007D01*
X55616367Y3174748D01*
X55769766Y2887758D01*
X55924475Y2699245D01*
X55924476Y2699244D01*
X55976209Y2636208D01*
X56039242Y2584478D01*
X57194477Y1429242D01*
X57246208Y1366208D01*
X57309242Y1314477D01*
X57309244Y1314475D01*
X57497757Y1159766D01*
X57784748Y1006366D01*
X58096151Y911903D01*
X58338845Y888000D01*
X58338854Y888000D01*
X58419999Y880008D01*
X58501144Y888000D01*
X60878853Y888000D01*
X60960000Y880008D01*
X61041147Y888000D01*
X61041155Y888000D01*
X61283849Y911903D01*
X61595252Y1006366D01*
X61882243Y1159766D01*
X62133792Y1366208D01*
X62185527Y1429247D01*
X63340759Y2584478D01*
X63403792Y2636208D01*
X63455526Y2699245D01*
X63610234Y2887757D01*
X63610235Y2887758D01*
X63763634Y3174748D01*
X63858097Y3486151D01*
X63877567Y3683833D01*
X64134749Y3546366D01*
X64446152Y3451903D01*
X64770000Y3420007D01*
X65093849Y3451903D01*
X65405252Y3546366D01*
X65692243Y3699766D01*
X65889323Y3861506D01*
X65894372Y3852059D01*
X65978973Y3748973D01*
X66082059Y3664372D01*
X66199670Y3601508D01*
X66327285Y3562796D01*
X66460000Y3549725D01*
X66668465Y3549725D01*
X66674749Y3546366D01*
X66986152Y3451903D01*
X67310000Y3420007D01*
X67633849Y3451903D01*
X67945252Y3546366D01*
X67951536Y3549725D01*
X68160000Y3549725D01*
X68292715Y3562796D01*
X68420330Y3601508D01*
X68537941Y3664372D01*
X68641027Y3748973D01*
X68725628Y3852059D01*
X68788492Y3969670D01*
X68808086Y4034265D01*
X79003000Y4034265D01*
X79003000Y3585735D01*
X79090504Y3145824D01*
X79262149Y2731436D01*
X79511339Y2358497D01*
X79828497Y2041339D01*
X80201436Y1792149D01*
X80615824Y1620504D01*
X81055735Y1533000D01*
X81504265Y1533000D01*
X81944176Y1620504D01*
X82358564Y1792149D01*
X82731503Y2041339D01*
X83048661Y2358497D01*
X83297851Y2731436D01*
X83469496Y3145824D01*
X83557000Y3585735D01*
X83557000Y4034265D01*
X83469496Y4474176D01*
X83297851Y4888564D01*
X83048661Y5261503D01*
X82731503Y5578661D01*
X82358564Y5827851D01*
X81944176Y5999496D01*
X81504265Y6087000D01*
X81055735Y6087000D01*
X80615824Y5999496D01*
X80201436Y5827851D01*
X79828497Y5578661D01*
X79511339Y5261503D01*
X79262149Y4888564D01*
X79090504Y4474176D01*
X79003000Y4034265D01*
X68808086Y4034265D01*
X68827204Y4097285D01*
X68840275Y4230000D01*
X68840275Y4438464D01*
X68843634Y4444748D01*
X68938097Y4756151D01*
X68962000Y4998845D01*
X68962000Y5665720D01*
X69264281Y5968000D01*
X71038853Y5968000D01*
X71120000Y5960008D01*
X71201147Y5968000D01*
X71201155Y5968000D01*
X71443849Y5991903D01*
X71755252Y6086366D01*
X72042243Y6239766D01*
X72293792Y6446208D01*
X72345527Y6509247D01*
X73500758Y7664477D01*
X73563792Y7716208D01*
X73770234Y7967757D01*
X73923634Y8254748D01*
X74018097Y8566151D01*
X74037567Y8763833D01*
X74294749Y8626366D01*
X74606152Y8531903D01*
X74930000Y8500007D01*
X75253849Y8531903D01*
X75565252Y8626366D01*
X75852243Y8779766D01*
X76103792Y8986208D01*
X76310234Y9237757D01*
X76463634Y9524748D01*
X76558097Y9836151D01*
X76582000Y10078845D01*
X76582000Y14141155D01*
X76558097Y14383849D01*
X76463634Y14695252D01*
X76310234Y14982243D01*
X76103792Y15233792D01*
X75852242Y15440234D01*
X75565251Y15593634D01*
X75253848Y15688097D01*
X74930000Y15719993D01*
X74606151Y15688097D01*
X74294748Y15593634D01*
X74007757Y15440234D01*
X73756208Y15233792D01*
X73660000Y15116563D01*
X73563792Y15233792D01*
X73312242Y15440234D01*
X73025251Y15593634D01*
X72713848Y15688097D01*
X72390000Y15719993D01*
X72066151Y15688097D01*
X71754748Y15593634D01*
X71467757Y15440234D01*
X71216208Y15233792D01*
X71120000Y15116563D01*
X71023792Y15233792D01*
X70772242Y15440234D01*
X70485251Y15593634D01*
X70173848Y15688097D01*
X69850000Y15719993D01*
X69526151Y15688097D01*
X69214748Y15593634D01*
X68927757Y15440234D01*
X68676208Y15233792D01*
X68580000Y15116563D01*
X68483792Y15233792D01*
X68232242Y15440234D01*
X67945251Y15593634D01*
X67633848Y15688097D01*
X67310000Y15719993D01*
X66986151Y15688097D01*
X66674748Y15593634D01*
X66387757Y15440234D01*
X66136208Y15233792D01*
X66040000Y15116563D01*
X65943792Y15233792D01*
X65692242Y15440234D01*
X65405251Y15593634D01*
X65093848Y15688097D01*
X64770000Y15719993D01*
X64446151Y15688097D01*
X64134748Y15593634D01*
X63847757Y15440234D01*
X63596208Y15233792D01*
X63389766Y14982242D01*
X63236366Y14695251D01*
X63141903Y14383848D01*
X63118000Y14141154D01*
X63118001Y10241164D01*
X63118000Y10241154D01*
X63118001Y6478537D01*
X62865252Y6613634D01*
X62553849Y6708097D01*
X62230000Y6739993D01*
X61906152Y6708097D01*
X61594749Y6613634D01*
X61307758Y6460234D01*
X61056209Y6253792D01*
X60849767Y6002243D01*
X60696367Y5715252D01*
X60601903Y5403849D01*
X60578000Y5161155D01*
X60578000Y4494281D01*
X60275720Y4192000D01*
X59104281Y4192000D01*
X58802000Y4494280D01*
X58802000Y4998856D01*
X58809992Y5080001D01*
X58802000Y5161146D01*
X58802000Y5161155D01*
X58778097Y5403849D01*
X58683634Y5715252D01*
X58530234Y6002243D01*
X58510612Y6026152D01*
X58375525Y6190756D01*
X58375523Y6190758D01*
X58323792Y6253792D01*
X58260759Y6305522D01*
X57105525Y7460755D01*
X57053792Y7523792D01*
X56802243Y7730234D01*
X56515252Y7883634D01*
X56203849Y7978097D01*
X55961155Y8002000D01*
X55961147Y8002000D01*
X55880000Y8009992D01*
X55798853Y8002000D01*
X29894281Y8002000D01*
X29592000Y8304280D01*
X29592000Y24048845D01*
X29599993Y24130000D01*
X29568097Y24453849D01*
X29473634Y24765252D01*
X29320234Y25052243D01*
X29113792Y25303792D01*
X28862243Y25510234D01*
X28575252Y25663634D01*
X28263849Y25758097D01*
X28021155Y25782000D01*
X27940000Y25789993D01*
X27858845Y25782000D01*
X27616151Y25758097D01*
X27304748Y25663634D01*
X27017757Y25510234D01*
X26766208Y25303792D01*
X26559766Y25052243D01*
X26406366Y24765252D01*
X26311903Y24453849D01*
X26280007Y24130000D01*
X22786720Y24130000D01*
X22639450Y24309450D01*
X22414546Y24494022D01*
X22157957Y24631172D01*
X21879542Y24715629D01*
X21590000Y24744146D01*
X21300457Y24715629D01*
X21022042Y24631172D01*
X20765453Y24494022D01*
X20540550Y24309450D01*
X20355978Y24084546D01*
X20320000Y24017237D01*
X20284022Y24084547D01*
X20099450Y24309450D01*
X19874546Y24494022D01*
X19617957Y24631172D01*
X19339542Y24715629D01*
X19050000Y24744146D01*
X18760457Y24715629D01*
X18482042Y24631172D01*
X18225453Y24494022D01*
X18000550Y24309450D01*
X17815978Y24084546D01*
X17780000Y24017237D01*
X17744022Y24084547D01*
X17559450Y24309450D01*
X17334546Y24494022D01*
X17077957Y24631172D01*
X16799542Y24715629D01*
X16510000Y24744146D01*
X16220457Y24715629D01*
X15942042Y24631172D01*
X15685453Y24494022D01*
X15460550Y24309450D01*
X15275978Y24084546D01*
X15240000Y24017237D01*
X15204022Y24084547D01*
X15019450Y24309450D01*
X14794546Y24494022D01*
X14537957Y24631172D01*
X14259542Y24715629D01*
X13970000Y24744146D01*
X13680457Y24715629D01*
X13402042Y24631172D01*
X13145453Y24494022D01*
X12920550Y24309450D01*
X12735978Y24084546D01*
X12700000Y24017237D01*
X12664022Y24084547D01*
X12479450Y24309450D01*
X12254546Y24494022D01*
X11997957Y24631172D01*
X11719542Y24715629D01*
X11430000Y24744146D01*
X11140457Y24715629D01*
X10862042Y24631172D01*
X10605453Y24494022D01*
X10380550Y24309450D01*
X10195978Y24084546D01*
X10160000Y24017237D01*
X10124022Y24084547D01*
X9939450Y24309450D01*
X9714546Y24494022D01*
X9457957Y24631172D01*
X9179542Y24715629D01*
X8890000Y24744146D01*
X8600457Y24715629D01*
X8322042Y24631172D01*
X8065453Y24494022D01*
X7840550Y24309450D01*
X7655978Y24084546D01*
X7620000Y24017237D01*
X7584022Y24084547D01*
X7399450Y24309450D01*
X7174546Y24494022D01*
X6917957Y24631172D01*
X6639542Y24715629D01*
X6350000Y24744146D01*
X6060457Y24715629D01*
X5782042Y24631172D01*
X5525453Y24494022D01*
X5300550Y24309450D01*
X5257650Y24257176D01*
X5238492Y24320330D01*
X5175628Y24437941D01*
X5091027Y24541027D01*
X4987941Y24625628D01*
X4870330Y24688492D01*
X4742715Y24727204D01*
X4610000Y24740275D01*
X3010000Y24740275D01*
X2877285Y24727204D01*
X2749670Y24688492D01*
X2632059Y24625628D01*
X2528973Y24541027D01*
X2444372Y24437941D01*
X2381508Y24320330D01*
X2342796Y24192715D01*
X2329725Y24060000D01*
X2329725Y23595079D01*
X2276366Y23495251D01*
X2181903Y23183848D01*
X2158000Y22941154D01*
X727000Y22941154D01*
X727000Y39370000D01*
X2150008Y39370000D01*
X2158001Y39288843D01*
X2158000Y36748846D01*
X2158001Y36748836D01*
X2158000Y30398846D01*
X2181903Y30156152D01*
X2276366Y29844749D01*
X2418653Y29578548D01*
X2438828Y29512042D01*
X2575978Y29255453D01*
X2760550Y29030550D01*
X2985454Y28845978D01*
X3242043Y28708828D01*
X3520458Y28624371D01*
X3810000Y28595854D01*
X4099543Y28624371D01*
X4377958Y28708828D01*
X4634547Y28845978D01*
X4859450Y29030550D01*
X5044022Y29255453D01*
X5181172Y29512042D01*
X5201346Y29578546D01*
X5343634Y29844748D01*
X5438097Y30156151D01*
X5462000Y30398845D01*
X5462000Y33020000D01*
X7230008Y33020000D01*
X7238000Y32938852D01*
X7238001Y30398845D01*
X7261904Y30156151D01*
X7356367Y29844748D01*
X7498653Y29578550D01*
X7518828Y29512042D01*
X7655978Y29255453D01*
X7840550Y29030550D01*
X8065454Y28845978D01*
X8322043Y28708828D01*
X8600458Y28624371D01*
X8890000Y28595854D01*
X9179543Y28624371D01*
X9457958Y28708828D01*
X9714547Y28845978D01*
X9939450Y29030550D01*
X10124022Y29255453D01*
X10160000Y29322763D01*
X10195978Y29255453D01*
X10380550Y29030550D01*
X10605454Y28845978D01*
X10862043Y28708828D01*
X11140458Y28624371D01*
X11430000Y28595854D01*
X11719543Y28624371D01*
X11997958Y28708828D01*
X12254547Y28845978D01*
X12339031Y28915312D01*
X12341903Y28886151D01*
X12361968Y28820007D01*
X12436367Y28574748D01*
X12589766Y28287758D01*
X12744475Y28099245D01*
X12744478Y28099242D01*
X12796209Y28036208D01*
X12859242Y27984478D01*
X14014477Y26829242D01*
X14066208Y26766208D01*
X14129242Y26714477D01*
X14129244Y26714475D01*
X14183436Y26670001D01*
X14317757Y26559766D01*
X14604748Y26406366D01*
X14916151Y26311903D01*
X15158845Y26288000D01*
X15158854Y26288000D01*
X15239999Y26280008D01*
X15321144Y26288000D01*
X31065720Y26288000D01*
X31368000Y25985719D01*
X31368001Y20401157D01*
X31360008Y20320000D01*
X31391903Y19996152D01*
X31486367Y19684748D01*
X31639766Y19397758D01*
X31794475Y19209245D01*
X31794478Y19209242D01*
X31846209Y19146208D01*
X31909242Y19094478D01*
X34334475Y16669244D01*
X34386208Y16606208D01*
X34449242Y16554477D01*
X34449244Y16554475D01*
X34503436Y16510001D01*
X34637757Y16399766D01*
X34924748Y16246366D01*
X35236151Y16151903D01*
X35478845Y16128000D01*
X35478854Y16128000D01*
X35559999Y16120008D01*
X35641144Y16128000D01*
X47575720Y16128000D01*
X47878000Y15825719D01*
X47878000Y15458537D01*
X47625251Y15593634D01*
X47313848Y15688097D01*
X46990000Y15719993D01*
X46666151Y15688097D01*
X46354748Y15593634D01*
X46067757Y15440234D01*
X45816208Y15233792D01*
X45720000Y15116563D01*
X45623792Y15233792D01*
X45372242Y15440234D01*
X45085251Y15593634D01*
X44773848Y15688097D01*
X44450000Y15719993D01*
X44126151Y15688097D01*
X43814748Y15593634D01*
X43527757Y15440234D01*
X43276208Y15233792D01*
X43180000Y15116563D01*
X43083792Y15233792D01*
X42832242Y15440234D01*
X42545251Y15593634D01*
X42233848Y15688097D01*
X41910000Y15719993D01*
X41586151Y15688097D01*
X41274748Y15593634D01*
X40987757Y15440234D01*
X40736208Y15233792D01*
X40640000Y15116563D01*
X40543792Y15233792D01*
X40292242Y15440234D01*
X40005251Y15593634D01*
X39693848Y15688097D01*
X39370000Y15719993D01*
X39046151Y15688097D01*
X38734748Y15593634D01*
X38447757Y15440234D01*
X38196208Y15233792D01*
X38100000Y15116563D01*
X38003792Y15233792D01*
X37752242Y15440234D01*
X37465251Y15593634D01*
X37153848Y15688097D01*
X36830000Y15719993D01*
X36506151Y15688097D01*
X36194748Y15593634D01*
X35907757Y15440234D01*
X35656208Y15233792D01*
X35560000Y15116563D01*
X35463792Y15233792D01*
X35212242Y15440234D01*
X34925251Y15593634D01*
X34613848Y15688097D01*
X34290000Y15719993D01*
X33966151Y15688097D01*
X33654748Y15593634D01*
X33367757Y15440234D01*
X33116208Y15233792D01*
X33020000Y15116563D01*
X32923792Y15233792D01*
X32672242Y15440234D01*
X32385251Y15593634D01*
X32073848Y15688097D01*
X31750000Y15719993D01*
X31426151Y15688097D01*
X31114748Y15593634D01*
X30827757Y15440234D01*
X30576208Y15233792D01*
X30369766Y14982242D01*
X30216366Y14695251D01*
X30121903Y14383848D01*
X30098000Y14141154D01*
X30098001Y10078845D01*
X30121904Y9836151D01*
X30216367Y9524748D01*
X30369767Y9237757D01*
X30576209Y8986208D01*
X30827758Y8779766D01*
X31114749Y8626366D01*
X31426152Y8531903D01*
X31750000Y8500007D01*
X32073849Y8531903D01*
X32385252Y8626366D01*
X32672243Y8779766D01*
X32923792Y8986208D01*
X33020001Y9103438D01*
X33116209Y8986208D01*
X33367758Y8779766D01*
X33654749Y8626366D01*
X33966152Y8531903D01*
X34290000Y8500007D01*
X34613849Y8531903D01*
X34925252Y8626366D01*
X35212243Y8779766D01*
X35463792Y8986208D01*
X35560001Y9103438D01*
X35656209Y8986208D01*
X35907758Y8779766D01*
X36194749Y8626366D01*
X36506152Y8531903D01*
X36830000Y8500007D01*
X37153849Y8531903D01*
X37465252Y8626366D01*
X37752243Y8779766D01*
X38003792Y8986208D01*
X38100001Y9103438D01*
X38196209Y8986208D01*
X38447758Y8779766D01*
X38734749Y8626366D01*
X39046152Y8531903D01*
X39370000Y8500007D01*
X39693849Y8531903D01*
X40005252Y8626366D01*
X40292243Y8779766D01*
X40543792Y8986208D01*
X40640001Y9103438D01*
X40736209Y8986208D01*
X40987758Y8779766D01*
X41274749Y8626366D01*
X41586152Y8531903D01*
X41910000Y8500007D01*
X42233849Y8531903D01*
X42545252Y8626366D01*
X42832243Y8779766D01*
X43083792Y8986208D01*
X43180001Y9103438D01*
X43276209Y8986208D01*
X43527758Y8779766D01*
X43814749Y8626366D01*
X44126152Y8531903D01*
X44450000Y8500007D01*
X44773849Y8531903D01*
X45085252Y8626366D01*
X45372243Y8779766D01*
X45623792Y8986208D01*
X45720001Y9103438D01*
X45816209Y8986208D01*
X46067758Y8779766D01*
X46354749Y8626366D01*
X46666152Y8531903D01*
X46990000Y8500007D01*
X47313849Y8531903D01*
X47625252Y8626366D01*
X47912243Y8779766D01*
X48163792Y8986208D01*
X48260001Y9103438D01*
X48356209Y8986208D01*
X48607758Y8779766D01*
X48894749Y8626366D01*
X49206152Y8531903D01*
X49530000Y8500007D01*
X49853849Y8531903D01*
X50165252Y8626366D01*
X50452243Y8779766D01*
X50703792Y8986208D01*
X50800001Y9103438D01*
X50896209Y8986208D01*
X51147758Y8779766D01*
X51434749Y8626366D01*
X51746152Y8531903D01*
X52070000Y8500007D01*
X52393849Y8531903D01*
X52705252Y8626366D01*
X52992243Y8779766D01*
X53243792Y8986208D01*
X53340001Y9103438D01*
X53436209Y8986208D01*
X53687758Y8779766D01*
X53974749Y8626366D01*
X54286152Y8531903D01*
X54610000Y8500007D01*
X54933849Y8531903D01*
X55245252Y8626366D01*
X55532243Y8779766D01*
X55783792Y8986208D01*
X55880001Y9103438D01*
X55976209Y8986208D01*
X56227758Y8779766D01*
X56514749Y8626366D01*
X56826152Y8531903D01*
X57150000Y8500007D01*
X57473849Y8531903D01*
X57785252Y8626366D01*
X58072243Y8779766D01*
X58323792Y8986208D01*
X58420001Y9103438D01*
X58516209Y8986208D01*
X58767758Y8779766D01*
X59054749Y8626366D01*
X59366152Y8531903D01*
X59690000Y8500007D01*
X60013849Y8531903D01*
X60325252Y8626366D01*
X60612243Y8779766D01*
X60863792Y8986208D01*
X61070234Y9237757D01*
X61223634Y9524748D01*
X61318097Y9836151D01*
X61342000Y10078845D01*
X61342000Y14141155D01*
X61318097Y14383849D01*
X61223634Y14695252D01*
X61070234Y14982243D01*
X60863792Y15233792D01*
X60612242Y15440234D01*
X60325251Y15593634D01*
X60013848Y15688097D01*
X59690000Y15719993D01*
X59366151Y15688097D01*
X59054748Y15593634D01*
X58767757Y15440234D01*
X58516208Y15233792D01*
X58420000Y15116563D01*
X58323792Y15233792D01*
X58072242Y15440234D01*
X57785251Y15593634D01*
X57473848Y15688097D01*
X57150000Y15719993D01*
X56826151Y15688097D01*
X56514748Y15593634D01*
X56227757Y15440234D01*
X55976208Y15233792D01*
X55880000Y15116563D01*
X55783792Y15233792D01*
X55532242Y15440234D01*
X55245251Y15593634D01*
X54933848Y15688097D01*
X54610000Y15719993D01*
X54286151Y15688097D01*
X53974748Y15593634D01*
X53722000Y15458537D01*
X53722000Y17698856D01*
X53729992Y17780001D01*
X53722000Y17861146D01*
X53722000Y17861155D01*
X53698097Y18103849D01*
X53603634Y18415252D01*
X53450234Y18702243D01*
X53243792Y18953792D01*
X53180759Y19005522D01*
X50755527Y21430753D01*
X50703792Y21493792D01*
X50452243Y21700234D01*
X50165252Y21853634D01*
X49853849Y21948097D01*
X49611155Y21972000D01*
X49611147Y21972000D01*
X49530000Y21979992D01*
X49448853Y21972000D01*
X37514281Y21972000D01*
X37212000Y22274280D01*
X37212000Y27858856D01*
X37219992Y27940001D01*
X37212000Y28021146D01*
X37212000Y28021155D01*
X37188097Y28263849D01*
X37093634Y28575252D01*
X36940234Y28862243D01*
X36831544Y28994682D01*
X36785525Y29050756D01*
X36785523Y29050758D01*
X36733792Y29113792D01*
X36670759Y29165522D01*
X34245527Y31590753D01*
X34193792Y31653792D01*
X33942243Y31860234D01*
X33655252Y32013634D01*
X33343849Y32108097D01*
X33101155Y32132000D01*
X33101147Y32132000D01*
X33020000Y32139992D01*
X32938853Y32132000D01*
X26084281Y32132000D01*
X25782000Y32434280D01*
X25782000Y32938856D01*
X25789992Y33020001D01*
X25782000Y33101146D01*
X25782000Y33101155D01*
X25758097Y33343849D01*
X25663634Y33655252D01*
X25510234Y33942243D01*
X25471034Y33990008D01*
X25355525Y34130756D01*
X25355523Y34130758D01*
X25303792Y34193792D01*
X25240759Y34245522D01*
X24085527Y35400753D01*
X24033792Y35463792D01*
X23782243Y35670234D01*
X23495252Y35823634D01*
X23183849Y35918097D01*
X22941155Y35942000D01*
X22941147Y35942000D01*
X22860000Y35949992D01*
X22778853Y35942000D01*
X17958280Y35942000D01*
X21430753Y39414473D01*
X21493792Y39466208D01*
X21700234Y39717757D01*
X21853634Y40004748D01*
X21948097Y40316151D01*
X21972000Y40558845D01*
X21972000Y40558852D01*
X21979992Y40640000D01*
X21972000Y40721147D01*
X21972000Y43098856D01*
X21979992Y43180001D01*
X21972000Y43261146D01*
X21972000Y43261155D01*
X21948097Y43503849D01*
X21853634Y43815252D01*
X21700234Y44102243D01*
X21680612Y44126152D01*
X21545525Y44290756D01*
X21545523Y44290758D01*
X21493792Y44353792D01*
X21430759Y44405522D01*
X21386281Y44450000D01*
X22470008Y44450000D01*
X22501903Y44126152D01*
X22596367Y43814748D01*
X22599725Y43808466D01*
X22599725Y43600000D01*
X22612796Y43467285D01*
X22651508Y43339670D01*
X22714372Y43222059D01*
X22798973Y43118973D01*
X22902059Y43034372D01*
X23019670Y42971508D01*
X23147285Y42932796D01*
X23280000Y42919725D01*
X23323995Y42919725D01*
X24174477Y42069242D01*
X24226208Y42006208D01*
X24289242Y41954477D01*
X24289244Y41954475D01*
X24292188Y41952059D01*
X24477757Y41799766D01*
X24764748Y41646366D01*
X25076151Y41551903D01*
X25318845Y41528000D01*
X25318854Y41528000D01*
X25399999Y41520008D01*
X25481144Y41528000D01*
X30098000Y41528000D01*
X30098001Y40144281D01*
X26829247Y36875527D01*
X26766208Y36823792D01*
X26559766Y36572242D01*
X26406366Y36285251D01*
X26311903Y35973848D01*
X26288000Y35731154D01*
X26288000Y35731147D01*
X26280008Y35650000D01*
X26288000Y35568853D01*
X26288000Y34371155D01*
X26280007Y34290000D01*
X26311903Y33966151D01*
X26406366Y33654748D01*
X26559766Y33367757D01*
X26766208Y33116208D01*
X27017757Y32909766D01*
X27304748Y32756366D01*
X27616151Y32661903D01*
X27858845Y32638000D01*
X27940000Y32630007D01*
X28021155Y32638000D01*
X28263849Y32661903D01*
X28575252Y32756366D01*
X28862243Y32909766D01*
X29113792Y33116208D01*
X29320234Y33367757D01*
X29473634Y33654748D01*
X29568097Y33966151D01*
X29599993Y34290000D01*
X29592000Y34371155D01*
X29592000Y34965720D01*
X32860753Y38234473D01*
X32923792Y38286208D01*
X33020000Y38403437D01*
X33116208Y38286208D01*
X33367757Y38079766D01*
X33654748Y37926366D01*
X33966151Y37831903D01*
X34290000Y37800007D01*
X34613848Y37831903D01*
X34925251Y37926366D01*
X35212242Y38079766D01*
X35463792Y38286208D01*
X35560001Y38403438D01*
X35656209Y38286208D01*
X35907758Y38079766D01*
X36194749Y37926366D01*
X36506152Y37831903D01*
X36830000Y37800007D01*
X37153849Y37831903D01*
X37465252Y37926366D01*
X37752243Y38079766D01*
X38003792Y38286208D01*
X38100001Y38403438D01*
X38196209Y38286208D01*
X38447758Y38079766D01*
X38734749Y37926366D01*
X39046152Y37831903D01*
X39370000Y37800007D01*
X39693849Y37831903D01*
X40005252Y37926366D01*
X40292243Y38079766D01*
X40543792Y38286208D01*
X40640001Y38403438D01*
X40736209Y38286208D01*
X40987758Y38079766D01*
X41274749Y37926366D01*
X41586152Y37831903D01*
X41910000Y37800007D01*
X42233849Y37831903D01*
X42545252Y37926366D01*
X42832243Y38079766D01*
X43083792Y38286208D01*
X43290234Y38537757D01*
X43443634Y38824748D01*
X43538097Y39136151D01*
X43562000Y39378845D01*
X43562000Y43261155D01*
X43538097Y43503849D01*
X43443634Y43815252D01*
X43290234Y44102243D01*
X43083792Y44353792D01*
X42832242Y44560234D01*
X42545251Y44713634D01*
X42233848Y44808097D01*
X41910000Y44839993D01*
X41586151Y44808097D01*
X41274748Y44713634D01*
X40987757Y44560234D01*
X40736208Y44353792D01*
X40640000Y44236563D01*
X40543792Y44353792D01*
X40292242Y44560234D01*
X40005251Y44713634D01*
X39693848Y44808097D01*
X39370000Y44839993D01*
X39046151Y44808097D01*
X38734748Y44713634D01*
X38447757Y44560234D01*
X38196208Y44353792D01*
X38100000Y44236563D01*
X38003792Y44353792D01*
X37752242Y44560234D01*
X37465251Y44713634D01*
X37153848Y44808097D01*
X36830000Y44839993D01*
X36506151Y44808097D01*
X36194748Y44713634D01*
X35907757Y44560234D01*
X35656208Y44353792D01*
X35622505Y44312724D01*
X35588801Y44353792D01*
X35337252Y44560234D01*
X35050261Y44713634D01*
X34738858Y44808097D01*
X34415009Y44839993D01*
X34091161Y44808097D01*
X33779758Y44713634D01*
X33492767Y44560234D01*
X33241218Y44353792D01*
X33082505Y44160401D01*
X32923792Y44353792D01*
X32672243Y44560234D01*
X32385252Y44713634D01*
X32073849Y44808097D01*
X31831155Y44832000D01*
X31750000Y44839993D01*
X31668845Y44832000D01*
X26084281Y44832000D01*
X25660275Y45256005D01*
X25660275Y45300000D01*
X25647204Y45432715D01*
X25608492Y45560330D01*
X25545628Y45677941D01*
X25461027Y45781027D01*
X25357941Y45865628D01*
X25240330Y45928492D01*
X25112715Y45967204D01*
X24980000Y45980275D01*
X24771534Y45980275D01*
X24765252Y45983633D01*
X24453848Y46078097D01*
X24130000Y46109992D01*
X23806152Y46078097D01*
X23494748Y45983633D01*
X23488466Y45980275D01*
X23280000Y45980275D01*
X23147285Y45967204D01*
X23019670Y45928492D01*
X22902059Y45865628D01*
X22798973Y45781027D01*
X22714372Y45677941D01*
X22651508Y45560330D01*
X22612796Y45432715D01*
X22599725Y45300000D01*
X22599725Y45091534D01*
X22596367Y45085252D01*
X22501903Y44773848D01*
X22470008Y44450000D01*
X21386281Y44450000D01*
X20275527Y45560753D01*
X20223792Y45623792D01*
X19972243Y45830234D01*
X19685252Y45983634D01*
X19373849Y46078097D01*
X19131155Y46102000D01*
X19131147Y46102000D01*
X19050000Y46109992D01*
X18968853Y46102000D01*
X17698845Y46102000D01*
X17456151Y46078097D01*
X17144748Y45983634D01*
X16857757Y45830234D01*
X16606208Y45623792D01*
X16399766Y45372243D01*
X16246366Y45085252D01*
X16151903Y44773849D01*
X16120007Y44450000D01*
X16151903Y44126151D01*
X16246366Y43814748D01*
X16399766Y43527757D01*
X16561506Y43330677D01*
X16552059Y43325628D01*
X16448973Y43241027D01*
X16364372Y43137941D01*
X16301508Y43020330D01*
X16262796Y42892715D01*
X16249725Y42760000D01*
X16249725Y42716005D01*
X7779247Y34245527D01*
X7716208Y34193792D01*
X7509766Y33942242D01*
X7356366Y33655251D01*
X7261903Y33343848D01*
X7238000Y33101154D01*
X7238000Y33101147D01*
X7230008Y33020000D01*
X5462000Y33020000D01*
X5462000Y38685720D01*
X15924281Y49148000D01*
X45463468Y49148000D01*
X45459725Y49110000D01*
X45459725Y48901535D01*
X45456366Y48895251D01*
X45361903Y48583848D01*
X45338000Y48341154D01*
X45338001Y43261164D01*
X45338000Y43261154D01*
X45338001Y39378845D01*
X45361904Y39136151D01*
X45456367Y38824748D01*
X45609767Y38537757D01*
X45816209Y38286208D01*
X46067758Y38079766D01*
X46354749Y37926366D01*
X46666152Y37831903D01*
X46990000Y37800007D01*
X47313849Y37831903D01*
X47625252Y37926366D01*
X47912243Y38079766D01*
X48163792Y38286208D01*
X48260001Y38403438D01*
X48356209Y38286208D01*
X48607758Y38079766D01*
X48894749Y37926366D01*
X49206152Y37831903D01*
X49530000Y37800007D01*
X49853849Y37831903D01*
X50165252Y37926366D01*
X50452243Y38079766D01*
X50703792Y38286208D01*
X50800001Y38403438D01*
X50896209Y38286208D01*
X51147758Y38079766D01*
X51434749Y37926366D01*
X51746152Y37831903D01*
X52070000Y37800007D01*
X52393849Y37831903D01*
X52705252Y37926366D01*
X52992243Y38079766D01*
X53243792Y38286208D01*
X53340001Y38403438D01*
X53436209Y38286208D01*
X53687758Y38079766D01*
X53974749Y37926366D01*
X54286152Y37831903D01*
X54610000Y37800007D01*
X54933849Y37831903D01*
X55245252Y37926366D01*
X55532243Y38079766D01*
X55783792Y38286208D01*
X55880001Y38403438D01*
X55976209Y38286208D01*
X56227758Y38079766D01*
X56514749Y37926366D01*
X56826152Y37831903D01*
X57150000Y37800007D01*
X57473849Y37831903D01*
X57785252Y37926366D01*
X58072243Y38079766D01*
X58323792Y38286208D01*
X58420001Y38403438D01*
X58516209Y38286208D01*
X58767758Y38079766D01*
X59054749Y37926366D01*
X59366152Y37831903D01*
X59690000Y37800007D01*
X60013849Y37831903D01*
X60325252Y37926366D01*
X60612243Y38079766D01*
X60863792Y38286208D01*
X60960001Y38403438D01*
X61056209Y38286208D01*
X61307758Y38079766D01*
X61594749Y37926366D01*
X61906152Y37831903D01*
X62230000Y37800007D01*
X62553849Y37831903D01*
X62865252Y37926366D01*
X63152243Y38079766D01*
X63403792Y38286208D01*
X63500001Y38403438D01*
X63596209Y38286208D01*
X63847758Y38079766D01*
X64134749Y37926366D01*
X64446152Y37831903D01*
X64770000Y37800007D01*
X65093849Y37831903D01*
X65405252Y37926366D01*
X65692243Y38079766D01*
X65943792Y38286208D01*
X66040001Y38403438D01*
X66136209Y38286208D01*
X66387758Y38079766D01*
X66674749Y37926366D01*
X66986152Y37831903D01*
X67310000Y37800007D01*
X67633849Y37831903D01*
X67945252Y37926366D01*
X68232243Y38079766D01*
X68483792Y38286208D01*
X68580001Y38403438D01*
X68676209Y38286208D01*
X68927758Y38079766D01*
X69214749Y37926366D01*
X69526152Y37831903D01*
X69850000Y37800007D01*
X70173849Y37831903D01*
X70485252Y37926366D01*
X70772243Y38079766D01*
X71023792Y38286208D01*
X71120001Y38403438D01*
X71216209Y38286208D01*
X71467758Y38079766D01*
X71754749Y37926366D01*
X72066152Y37831903D01*
X72390000Y37800007D01*
X72713849Y37831903D01*
X73025252Y37926366D01*
X73312243Y38079766D01*
X73563792Y38286208D01*
X73660001Y38403438D01*
X73756209Y38286208D01*
X74007758Y38079766D01*
X74294749Y37926366D01*
X74606152Y37831903D01*
X74930000Y37800007D01*
X75253849Y37831903D01*
X75565252Y37926366D01*
X75852243Y38079766D01*
X76102654Y38285274D01*
X76104372Y38282059D01*
X76188973Y38178973D01*
X76292059Y38094372D01*
X76409670Y38031508D01*
X76537285Y37992796D01*
X76670000Y37979725D01*
X76734921Y37979725D01*
X76834749Y37926366D01*
X77146152Y37831903D01*
X77470000Y37800007D01*
X77793849Y37831903D01*
X78105252Y37926366D01*
X78205080Y37979725D01*
X78270000Y37979725D01*
X78402715Y37992796D01*
X78530330Y38031508D01*
X78647941Y38094372D01*
X78751027Y38178973D01*
X78835628Y38282059D01*
X78898492Y38399670D01*
X78937204Y38527285D01*
X78950275Y38660000D01*
X78950275Y38724920D01*
X79003634Y38824748D01*
X79098097Y39136151D01*
X79122000Y39378845D01*
X79122000Y45638856D01*
X79129992Y45720001D01*
X79122000Y45801146D01*
X79122000Y45801155D01*
X79098097Y46043849D01*
X79003634Y46355252D01*
X78850234Y46642243D01*
X78643792Y46893792D01*
X78580759Y46945522D01*
X77425527Y48100753D01*
X77373792Y48163792D01*
X77122243Y48370234D01*
X76835252Y48523634D01*
X76523849Y48618097D01*
X76281155Y48642000D01*
X76281147Y48642000D01*
X76200000Y48649992D01*
X76118853Y48642000D01*
X51484281Y48642000D01*
X51182000Y48944280D01*
X51182000Y49453858D01*
X51189992Y49535003D01*
X51182000Y49616148D01*
X51182000Y49616157D01*
X51168398Y49754265D01*
X79003000Y49754265D01*
X79003000Y49305735D01*
X79090504Y48865824D01*
X79262149Y48451436D01*
X79511339Y48078497D01*
X79828497Y47761339D01*
X80201436Y47512149D01*
X80615824Y47340504D01*
X81055735Y47253000D01*
X81504265Y47253000D01*
X81944176Y47340504D01*
X82358564Y47512149D01*
X82731503Y47761339D01*
X83048661Y48078497D01*
X83297851Y48451436D01*
X83469496Y48865824D01*
X83557000Y49305735D01*
X83557000Y49754265D01*
X83469496Y50194176D01*
X83297851Y50608564D01*
X83048661Y50981503D01*
X82731503Y51298661D01*
X82358564Y51547851D01*
X81944176Y51719496D01*
X81504265Y51807000D01*
X81055735Y51807000D01*
X80615824Y51719496D01*
X80201436Y51547851D01*
X79828497Y51298661D01*
X79511339Y50981503D01*
X79262149Y50608564D01*
X79090504Y50194176D01*
X79003000Y49754265D01*
X51168398Y49754265D01*
X51158097Y49858851D01*
X51063634Y50170254D01*
X50910234Y50457245D01*
X50703792Y50708794D01*
X50640759Y50760524D01*
X49490529Y51910753D01*
X49438794Y51973792D01*
X49187245Y52180234D01*
X48900254Y52333634D01*
X48588851Y52428097D01*
X48346157Y52452000D01*
X48346149Y52452000D01*
X48265002Y52459992D01*
X48183855Y52452000D01*
X15321147Y52452000D01*
X15239999Y52459992D01*
X15158852Y52452000D01*
X15158845Y52452000D01*
X14916151Y52428097D01*
X14604748Y52333634D01*
X14317757Y52180234D01*
X14129244Y52025525D01*
X14129242Y52025523D01*
X14066208Y51973792D01*
X14014477Y51910758D01*
X2699243Y40595523D01*
X2636209Y40543792D01*
X2584478Y40480758D01*
X2584475Y40480755D01*
X2429766Y40292242D01*
X2276367Y40005252D01*
X2181903Y39693848D01*
X2150008Y39370000D01*
X727000Y39370000D01*
X727000Y49754265D01*
X1533000Y49754265D01*
X1533000Y49305735D01*
X1620504Y48865824D01*
X1792149Y48451436D01*
X2041339Y48078497D01*
X2358497Y47761339D01*
X2731436Y47512149D01*
X3145824Y47340504D01*
X3585735Y47253000D01*
X4034265Y47253000D01*
X4474176Y47340504D01*
X4888564Y47512149D01*
X5261503Y47761339D01*
X5578661Y48078497D01*
X5827851Y48451436D01*
X5999496Y48865824D01*
X6087000Y49305735D01*
X6087000Y49754265D01*
X5999496Y50194176D01*
X5827851Y50608564D01*
X5578661Y50981503D01*
X5261503Y51298661D01*
X4888564Y51547851D01*
X4474176Y51719496D01*
X4034265Y51807000D01*
X3585735Y51807000D01*
X3145824Y51719496D01*
X2731436Y51547851D01*
X2358497Y51298661D01*
X2041339Y50981503D01*
X1792149Y50608564D01*
X1620504Y50194176D01*
X1533000Y49754265D01*
X727000Y49754265D01*
X727000Y52613000D01*
X84363001Y52613000D01*
X84363000Y727000D01*
M02*
