M48
; DRILL file {KiCad 5.1.6} date Sat Jul 18 15:54:19 2020
; FORMAT={-:-/ absolute / metric / decimal}
; #@! TF.CreationDate,2020-07-18T15:54:19+02:00
; #@! TF.GenerationSoftware,Kicad,Pcbnew,5.1.6
FMAT,2
METRIC
T1C0.800
T2C1.000
T3C3.000
%
G90
G05
T1
X27.94Y34.29
X27.94Y24.13
X11.43Y16.51
X16.43Y16.51
X3.81Y16.51
X8.81Y16.51
X3.81Y19.05
X8.81Y19.05
X11.43Y19.05
X16.43Y19.05
X3.81Y36.83
X8.81Y36.83
X3.81Y30.48
X3.81Y22.86
X6.35Y30.48
X6.35Y22.86
X8.89Y30.48
X8.89Y22.86
X11.43Y30.48
X11.43Y22.86
X13.97Y30.48
X13.97Y22.86
X16.51Y30.48
X16.51Y22.86
X19.05Y30.48
X19.05Y22.86
X21.59Y30.48
X21.59Y22.86
T2
X31.75Y10.16
X34.29Y10.16
X36.83Y10.16
X39.37Y10.16
X41.91Y10.16
X44.45Y10.16
X46.99Y10.16
X49.53Y10.16
X52.07Y10.16
X54.61Y10.16
X57.15Y10.16
X59.69Y10.16
X62.23Y10.16
X64.77Y10.16
X67.31Y10.16
X69.85Y10.16
X72.39Y10.16
X74.93Y10.16
X77.47Y10.16
X31.75Y39.46
X31.75Y14.06
X34.29Y39.46
X34.29Y14.06
X36.83Y39.46
X36.83Y14.06
X39.37Y39.46
X39.37Y14.06
X41.91Y39.46
X41.91Y14.06
X44.45Y39.46
X44.45Y14.06
X46.99Y39.46
X46.99Y14.06
X49.53Y39.46
X49.53Y14.06
X52.07Y39.46
X52.07Y14.06
X54.61Y39.46
X54.61Y14.06
X57.15Y39.46
X57.15Y14.06
X59.69Y39.46
X59.69Y14.06
X62.23Y39.46
X62.23Y14.06
X64.77Y39.46
X64.77Y14.06
X67.31Y39.46
X67.31Y14.06
X69.85Y39.46
X69.85Y14.06
X72.39Y39.46
X72.39Y14.06
X74.93Y39.46
X74.93Y14.06
X77.47Y39.46
X77.47Y14.06
X59.69Y5.08
X62.23Y5.08
X64.77Y5.08
X67.31Y5.08
X24.13Y46.99
X24.13Y44.45
X17.78Y46.99
X17.78Y44.45
X17.78Y41.91
X44.45Y48.26
X46.99Y48.26
X31.75Y43.18
X34.29Y43.18
X36.83Y43.18
X39.37Y43.18
X41.91Y43.18
X44.45Y43.18
X46.99Y43.18
X49.53Y43.18
X52.07Y43.18
X54.61Y43.18
X57.15Y43.18
X59.69Y43.18
X62.23Y43.18
X64.77Y43.18
X67.31Y43.18
X69.85Y43.18
X72.39Y43.18
X74.93Y43.18
X77.47Y43.18
T3
X81.28Y3.81
X3.81Y3.81
X81.28Y49.53
X3.81Y49.53
T0
M30
